<svg width="800" height="650" viewBox="0 0 800 650" fill="none" xmlns="http://www.w3.org/2000/svg">
<path d="M165.27 376.46C163.18 375.56 135.35 354.13 135.35 354.13L204.4 314.31L217.31 347.2L165.27 376.46Z" fill="black"/>
<path d="M149.35 530.82C149.71 529.92 167.25 512.54 167.25 512.54L132.48 452.33L113.97 456.85L140.9 538.57L149.36 530.83L149.35 530.82Z" fill="black"/>
<path d="M247.82 580.76C246.92 579.26 240.21 554.88 240.21 554.88L306.23 531.14L310.78 566.01L247.82 580.77V580.76Z" fill="black"/>
<path d="M332.48 388.2C328.59 383.94 281.4 349.45 281.4 349.45L294.19 322.62L353.79 370.24L332.48 388.2Z" fill="black"/>
<path d="M387.83 485.12L359.55 462.72L412.56 383.23L448.28 400.38L387.83 485.12Z" fill="black"/>
<path d="M455.95 544.62L473.1 521.09L582.09 552.24L576.97 580.76H504.35L455.95 544.62Z" fill="black"/>
<path d="M473.1 336.34L512.72 309.55L550.84 305.02L590.61 314.32L585.5 344.14H543.53L494.39 363.61L473.1 336.34Z" fill="black"/>
<path d="M627.16 387.39L651.58 357.06L680.1 402.47L687.77 445.6L673.38 492.39L639.19 485.12L643.67 433.56L627.16 387.39Z" fill="black"/>
<path d="M431.31 540.3C431.59 540.57 431.89 540.83 432.18 541.1L424.53 497.31L469.84 489.39C462.12 481.54 455.01 473.33 448.85 465.51C443.93 459.27 439.6 453.33 435.95 448.06C433.12 452.38 430.97 455.88 429.62 458.14C428.62 459.81 428.04 460.83 427.96 460.98L427.16 462.44H427.14C425.08 466.04 419.28 475.86 410.25 488.78C406.9 493.57 403.1 498.8 398.88 504.29C407.92 515.78 418.76 528.26 431.32 540.31L431.31 540.3Z" fill="white"/>
<path d="M322.77 356.91C323.14 356.04 323.65 355 324.05 354.16L324.02 354.13C323.27 354.68 322.36 355.42 321.61 355.94L318.86 357.85L321.44 359.99L322.77 356.91Z" fill="white"/>
<path d="M301.23 338.82C300.63 338.51 300.19 338.33 299.93 338.28L297.87 342.27C298.1 342.46 298.39 342.64 298.85 342.88C300.47 343.72 301.9 343.42 302.6 342.05C303.25 340.81 302.77 339.62 301.23 338.82Z" fill="white"/>
<path d="M303.23 305.33C301.9 304.69 300.57 304.06 299.22 303.46C297.94 302.88 296.64 302.33 295.34 301.78C295.2 301.72 295.06 301.66 294.92 301.6C293.51 301.02 292.09 300.45 290.65 299.9C290.61 299.89 290.57 299.87 290.53 299.86C289.49 299.46 288.44 299.09 287.38 298.72L257.14 319.28L260.13 340.45L262.48 357.09C263.12 357.28 263.76 357.45 264.41 357.66C273.66 360.68 283.24 365.76 292.62 372.26C294.29 373.42 295.96 374.62 297.61 375.87L297.71 375.94L297.74 375.96C299.43 377.23 301.12 378.55 302.79 379.91C305.87 382.4 308.84 385.04 311.76 387.71C312.97 388.83 314.15 389.96 315.32 391.08C317.76 393.42 320.15 395.81 322.48 398.23H322.49L322.61 398.37H322.6C324.92 400.76 327.18 403.19 329.37 405.63L330.09 406.43V406.56C331.94 408.64 333.76 410.73 335.5 412.81C339.21 417.23 342.69 421.61 345.85 425.8C349.12 430.11 352.06 434.21 354.65 437.97C357.29 433.94 359.35 430.63 360.73 428.33C361.94 426.32 362.65 425.07 362.76 424.87L362.78 424.83V424.84C363.05 424.35 365.48 420 369.79 413.15C374.11 406.29 380.34 396.9 388.29 386.25C389.39 384.77 390.54 383.28 391.71 381.76C388.92 378.22 385.97 374.6 382.86 370.91L381.19 368.99L381.26 368.9C379.14 366.41 377 363.93 374.73 361.42C369.07 355.21 362.79 348.96 356.18 342.79L356.16 342.77C352.43 339.29 348.56 335.9 344.51 332.54C342.25 330.64 339.98 328.77 337.64 326.96C336.11 325.78 334.55 324.63 332.95 323.46C331.36 322.28 329.74 321.13 328.1 319.99H328.09C326.5 318.86 324.85 317.76 323.18 316.67H323.16V316.66H323.18C321.96 315.87 320.83 315.09 319.69 314.38C314.43 311.13 308.94 308.09 303.24 305.34L303.23 305.33ZM297.65 345.23C297.25 345.02 296.9 344.82 296.65 344.61L294.14 349.46L291.12 347.89L298.02 334.57C299.04 334.9 300.43 335.46 302.29 336.43C304.17 337.41 305.33 338.46 305.86 339.65C306.39 340.79 306.37 342.2 305.68 343.52C304.99 344.84 303.98 345.77 302.78 346.08C301.24 346.5 299.46 346.16 297.66 345.23H297.65ZM302.31 353.93L310.78 341.3L313.63 343.21L306.77 353.44L311.8 356.81L310.19 359.21L302.32 353.93H302.31ZM333.47 358.92L336.29 361.78L334.54 367.94C334.03 369.71 333.3 371.66 332.57 373.36L332.6 373.39C333.88 371.84 335.3 370.35 336.93 368.74L340.08 365.64L342.3 367.89L331.48 378.56L328.95 375.99L330.85 369.56C331.37 367.78 332.06 365.68 332.82 363.91L332.76 363.85C331.39 365.35 329.9 366.89 328.14 368.63L324.88 371.85L322.67 369.6L333.49 358.94L333.47 358.92ZM324.04 350.82L327.51 353.7L321.45 368.42L318.59 366.05L320.18 362.3L316.83 359.52L313.5 361.83L310.78 359.57L324.05 350.83L324.04 350.82Z" fill="white"/>
<path d="M359.55 501.9L315.89 494.27C306.4 503.4 296.15 511.76 285.72 518.09C278.45 522.52 271.17 525.98 264.08 528.28C256.98 530.58 250.11 531.75 243.28 531.76C226.55 531.75 211.02 527.16 197.71 519.17L199.65 558.2L166.86 574.39C189.32 587.46 215.44 595 243.2 595H243.27H243.29H243.31C257.69 595 271.46 592.44 284.2 588.24C306.58 580.83 325.9 568.6 342.67 555C345.75 552.49 348.68 549.89 351.61 547.25L359.54 501.9H359.55ZM260.09 573.59L256.69 574.07L254.98 561.87L250.91 562.44L250.51 559.58L262.08 557.95L262.48 560.81L258.37 561.39L260.08 573.59H260.09ZM266.92 572.42L263.32 557.65L272.42 555.43L273.09 558.17L267.32 559.58L268.07 562.65L273.5 561.32L274.16 564.04L268.73 565.37L269.58 568.88L275.65 567.4L276.32 570.14L266.92 572.43V572.42ZM283.08 568.14C281.44 568.72 279.67 568.84 278.7 568.68L278.42 565.79C279.43 565.94 280.95 565.9 282.33 565.42C283.82 564.9 284.39 564 284.06 563.07C283.74 562.18 282.88 561.9 280.95 561.91C278.27 561.9 276.23 561.13 275.5 559.05C274.64 556.6 276.05 554.03 279.41 552.84C281.05 552.26 282.33 552.17 283.32 552.28L283.51 555.13C282.86 555.05 281.67 555.01 280.29 555.5C278.89 556 278.44 556.89 278.69 557.62C279.01 558.54 279.94 558.66 282.06 558.7C284.92 558.75 286.55 559.65 287.26 561.67C288.11 564.07 287 566.76 283.06 568.14H283.08ZM294.49 563.38L289.26 552.23L285.54 553.97L284.31 551.36L294.89 546.4L296.12 549.01L292.36 550.77L297.59 561.92L294.49 563.38Z" fill="white"/>
<path d="M150.46 513.35L153.86 510.74C153.69 510.45 153.44 510.12 153.09 509.66C152.14 508.43 150.82 507.7 149.55 508.68C148.35 509.6 148.7 511.06 149.75 512.42L150.46 513.35Z" fill="white"/>
<path d="M123.55 471.65L133.25 469.49C133.25 469.19 133.15 468.7 133.06 468.31C132.4 465.25 130.28 463.62 126.74 464.41C123.66 465.1 122.43 467.26 123.08 470.17C123.24 470.89 123.42 471.39 123.55 471.66V471.65Z" fill="white"/>
<path d="M119.11 530.68C124.11 537.75 129.66 544.38 135.74 550.45C143.41 558.14 151.98 564.97 161.21 570.88L193.84 554.77L191.88 515.33C187.83 512.45 184 509.25 180.47 505.73C176.78 502.02 173.48 497.99 170.5 493.75C168.26 490.56 166.24 487.23 164.44 483.76L164.12 483.15V483.1C157.98 471.05 154.46 457.45 154.45 442.9C154.45 431.89 156.45 421.4 160.08 411.72L121.55 415.74L109.92 369.95C98.04 391.61 91.21 416.45 91.2 442.8V442.87V443.02C91.2 470.67 98.7 496.69 111.68 519.09C113.99 523.07 116.47 526.94 119.12 530.68H119.11ZM150.99 505C152.36 505.34 153.88 506.51 155.72 508.91C156.75 510.25 157.43 511.32 157.8 512L145.95 521.08C145.28 520.46 144.05 519.12 143 517.75C141.72 516.09 141.1 514.94 140.94 513.65C140.74 512.47 141.11 511.24 142.22 510.39C143.28 509.58 144.74 509.45 146.3 510.41L146.34 510.38C145.64 508.73 145.92 506.9 147.45 505.72C148.56 504.87 149.8 504.71 150.99 505ZM147.11 496.04C149.03 499.36 148.28 502.37 144.11 504.78L136.77 509.02L135.06 506.05L142.62 501.69C144.9 500.37 145.55 498.83 144.68 497.32C143.78 495.76 142.19 495.53 139.84 496.88L132.28 501.24L130.57 498.27L137.95 494.01C142.01 491.67 145.13 492.6 147.11 496.04ZM142.73 488.24L128.87 494.5L127.46 491.37L141.32 485.11L142.73 488.24ZM140.21 482.65L125.9 487.76L124.75 484.53L136.35 480.39L134.32 474.7L137.04 473.73L140.23 482.65H140.21ZM120.81 464.63C121.61 462.84 123.22 461.46 125.84 460.88C128.68 460.25 130.87 460.84 132.39 461.98C134.04 463.25 135.19 465.51 135.84 468.42C136.23 470.16 136.4 471.44 136.47 472.28L121.93 475.52C121.46 474.33 120.97 472.75 120.6 471.08C119.96 468.24 120.08 466.28 120.82 464.63H120.81Z" fill="white"/>
<path d="M144.65 512.89C143.74 513.59 143.79 514.66 144.74 515.89C145.21 516.5 145.51 516.81 145.71 517L148.52 514.85L147.83 513.96C146.72 512.51 145.55 512.21 144.65 512.9V512.89Z" fill="white"/>
<path d="M309.58 305.38C310.74 305.99 311.9 306.6 313.04 307.23Z" fill="white"/>
<path d="M308.91 305.02C307.59 304.33 306.25 303.67 304.9 303.01Z" fill="white"/>
<path d="M125.81 409.74L162.57 405.91C164.33 402.1 166.35 398.43 168.61 394.93L171.05 391.38C173.88 387.42 177.01 383.67 180.46 380.21C182.29 378.38 184.2 376.66 186.16 375.03L186.94 374.38H186.97C190.44 371.54 194.11 369.01 197.92 366.73C211.17 358.82 226.6 354.2 243.27 354.19C245.55 354.19 247.8 354.37 250.02 354.61C252.21 354.85 254.39 355.23 256.56 355.69L251.3 318.44L251.05 316.7L280.61 296.6C279.12 296.16 277.61 295.74 276.08 295.35H276.06C273.43 294.65 270.71 294.06 267.95 293.51H267.92C260.02 291.93 251.9 290.97 243.54 290.95H243.51H243.16C212.53 290.95 183.9 300.13 159.98 315.8C158.76 316.6 157.55 317.43 156.33 318.28L156.06 318.47C154.66 319.44 153.3 320.44 151.95 321.45L151.92 321.63L151.04 322.3C145.63 326.42 140.44 330.75 135.72 335.49C134.64 336.57 133.58 337.71 132.49 338.88L132.23 339.16C125.37 346.48 119.27 354.54 113.95 363.14L125.79 409.76L125.81 409.74ZM200.39 326.58L201.4 329.21L195.86 331.34L196.99 334.29L202.21 332.29L203.21 334.9L197.99 336.9L199.29 340.27L205.12 338.03L206.13 340.66L197.1 344.13L191.65 329.94L200.39 326.58ZM180.37 335.42C182.93 334.05 184.86 333.63 186.64 333.9C188.59 334.19 190.35 335.37 191.61 337.73C192.99 340.3 193 342.57 192.31 344.34C191.53 346.27 189.66 347.99 187.04 349.4C185.47 350.24 184.28 350.75 183.49 351.04L176.44 337.9C177.46 337.13 178.85 336.23 180.36 335.42H180.37ZM167 343.85C170.75 341.08 174.88 342.37 177.39 345.76C180.37 349.79 179.74 353.99 176.15 356.64C172.54 359.31 168.37 358.16 165.79 354.65C163.08 350.99 163.41 346.51 167 343.85ZM156.75 352.35C158.04 351.12 159.25 350.43 159.92 350.25L161.27 352.71C160.58 352.96 159.69 353.44 158.8 354.3C156.85 356.17 156.45 358.83 158.8 361.27C160.91 363.47 163.54 363.61 165.73 361.5C166.5 360.77 167.17 359.84 167.47 359.14L169.7 360.75C169.46 361.39 168.67 362.64 167.35 363.91C163.55 367.54 159.32 367.04 156.33 363.91C152.74 360.17 153.43 355.54 156.75 352.36V352.35Z" fill="white"/>
<path d="M174.67 354.34C176.54 352.96 176.29 350.39 174.53 348.02C172.89 345.81 170.46 344.68 168.56 346.09C166.68 347.48 166.9 350.07 168.66 352.44C170.44 354.85 172.82 355.71 174.67 354.34Z" fill="white"/>
<path d="M186.42 346.7C189.2 345.24 190.19 342.76 188.48 339.56C186.99 336.77 184.57 336.18 181.94 337.59C181.28 337.94 180.86 338.25 180.63 338.45L185.33 347.22C185.62 347.14 186.06 346.9 186.41 346.71L186.42 346.7Z" fill="white"/>
<path d="M324.73 314.32C326.41 315.42 328.07 316.53 329.7 317.68Z" fill="white"/>
<path d="M296 378.17L295.96 378.14L295.94 378.13L296 378.17Z" fill="white"/>
<path d="M314.56 308.09C315.42 308.57 316.28 309.05 317.12 309.55Z" fill="white"/>
<path d="M321.17 311.98C322.38 312.73 323.54 313.53 324.72 314.31Z" fill="white"/>
<path d="M290.07 373.94C290.38 374.15 290.7 374.36 291.02 374.58C290.7 374.36 290.39 374.16 290.07 373.94Z" fill="white"/>
<path d="M271.89 363.61C270.9 363.17 269.92 362.74 268.94 362.34Z" fill="white"/>
<path d="M281.27 368.41C280.45 367.94 279.63 367.49 278.81 367.04Z" fill="white"/>
<path d="M273.28 364.24C274.58 364.85 275.89 365.49 277.2 366.17Z" fill="white"/>
<path d="M285.33 370.85C284.68 370.44 284.02 370.04 283.37 369.64Z" fill="white"/>
<path d="M263.54 360.34C264.9 360.78 266.27 361.29 267.64 361.82Z" fill="white"/>
<path d="M560.96 559.24C560.12 559.27 559.65 559.33 559.41 559.41L559.56 563.58L560.91 563.53C562.62 563.47 563.61 562.58 563.56 561.25C563.51 559.88 562.54 559.19 560.96 559.24Z" fill="white"/>
<path d="M546.84 558.91C544.5 558.72 542.98 560.82 542.74 563.76C542.5 566.75 543.72 568.95 546.01 569.14C548.33 569.33 549.83 567.23 550.07 564.29C550.29 561.55 549.2 559.11 546.84 558.92V558.91Z" fill="white"/>
<path d="M499.96 546.46C497.83 545.48 495.68 546.93 494.45 549.61C493.2 552.34 493.6 554.82 495.69 555.78C497.8 556.75 499.93 555.29 501.16 552.61C502.31 550.11 502.11 547.44 499.96 546.46Z" fill="white"/>
<path d="M626.89 543.39L624.11 543.87L616.27 499C614.39 501.33 612.4 503.59 610.27 505.72C594.1 521.84 572.08 531.73 547.45 531.74C540.63 531.74 533.76 530.57 526.66 528.26C519.57 525.96 512.28 522.5 505.02 518.07C499.64 514.8 492.73 509.37 486.71 504.39C481.39 499.99 476.81 495.97 474.84 494.23L431.05 501.88L438.95 547.09C441.93 549.77 444.91 552.43 448.05 554.98C464.82 568.57 484.14 580.8 506.52 588.21C519.27 592.41 533.03 594.97 547.41 594.97H547.48H547.5H547.52C589.39 594.97 627.59 577.88 654.99 550.43C659.43 546 663.57 541.26 667.44 536.28L626.89 543.37V543.39ZM482.42 551.88L485.22 546.78C486.11 545.18 487.19 543.26 488.34 541.37L488.3 541.34C486.87 542.74 485.21 544.27 483.78 545.48L479.13 549.59L476.84 548.2L478.49 542.35C479 540.55 479.7 538.44 480.4 536.55L480.36 536.53C479.24 538.25 477.95 540.21 476.89 541.78L473.65 546.56L470.93 544.91L479.64 532.42L483.55 534.79L482.19 539.9C481.7 541.66 481.11 543.51 480.47 545.21L480.55 545.26C481.81 543.97 483.29 542.52 484.61 541.34L488.6 537.85L492.46 540.19L485.28 553.61L482.43 551.88H482.42ZM494.4 558.18C490.32 556.31 489.32 552.11 491.13 548.16C493.03 544.02 497.11 542.15 501.17 544C505.41 545.94 506.27 550.18 504.52 554.01C502.44 558.56 498.46 560.04 494.4 558.18ZM512.87 565.1L511.66 558.5C511.32 556.67 510.99 554.49 510.87 552.57L510.78 552.54C510.24 554.5 509.6 556.55 508.81 558.9L507.35 563.24L504.36 562.23L509.21 547.82L513.02 549.1L514.23 555.39C514.57 557.2 514.8 559.27 514.92 561.12H514.96C515.41 559.17 516 557.2 516.73 555.02L518.14 550.83L521.14 551.84L516.29 566.25L512.87 565.1ZM523.22 567.96L519.9 567.12L523.63 552.38L526.95 553.22L523.22 567.96ZM533 569.98L529.63 569.36L531.86 557.24L527.82 556.5L528.34 553.66L539.84 555.78L539.32 558.62L535.24 557.87L533.01 569.99L533 569.98ZM553.71 564.45C553.31 569.44 550.08 572.19 545.63 571.83C541.16 571.47 538.78 567.86 539.13 563.53C539.5 558.99 542.69 555.83 547.14 556.19C551.79 556.56 554.05 560.25 553.71 564.45ZM564.43 571.85C564.19 571.41 563.76 570.2 563.27 568.35C562.77 566.45 562.1 565.98 560.68 566L559.67 566.03L559.88 572.01L556.48 572.13L555.94 557.14C557.04 556.92 558.66 556.73 560.51 556.66C562.76 556.58 564.35 556.86 565.47 557.68C566.42 558.37 566.95 559.43 567 560.83C567.07 562.75 565.74 564.13 564.45 564.65V564.72C565.53 565.11 566.15 566.08 566.58 567.47C567.12 569.19 567.64 571.16 567.95 571.73L564.43 571.86V571.85Z" fill="white"/>
<path d="M405.62 485.54C416.48 470 422.59 459.01 423.02 458.24L423.83 456.79H423.86C424.11 456.35 424.41 455.86 424.78 455.24C425.81 453.52 427.27 451.13 429.13 448.22C432.85 442.4 438.15 434.52 444.76 425.79C447.92 421.6 451.39 417.22 455.11 412.8C456.58 411.05 458.13 409.29 459.68 407.53C459.95 407.22 460.23 406.89 460.52 406.55V359.7H417.65C414.19 363.46 410.87 367.2 407.76 370.88C402.28 377.37 397.26 383.7 392.83 389.61C384.99 400.11 378.84 409.38 374.58 416.13C370.34 422.86 368.01 427.06 367.72 427.57V427.59H367.71C367.51 427.95 366.81 429.18 365.59 431.2C364.35 433.26 362.59 436.11 360.36 439.54C355.91 446.4 349.58 455.59 341.78 465.47C335.61 473.29 328.5 481.5 320.78 489.35L366.09 497.27L358.44 541.06C358.73 540.79 359.03 540.52 359.31 540.25C379.17 521.19 394.75 501.06 405.64 485.49L405.62 485.54ZM415.39 424.56L412.84 428.09L415.37 431.25L413.3 434.12L403.69 421.47L406.33 417.82L421.41 422.89L419.23 425.9L415.38 424.57L415.39 424.56ZM422.91 394.88L425.19 396.53L421.72 401.33L424.28 403.18L427.55 398.65L429.81 400.29L426.54 404.82L429.46 406.93L433.12 401.87L435.4 403.52L429.73 411.35L417.42 402.45L422.9 394.87L422.91 394.88ZM417.9 407.43C417.32 407.73 416.32 408.38 415.46 409.56C414.59 410.77 414.73 411.76 415.36 412.21C416.15 412.78 416.98 412.35 418.75 411.18C421.12 409.59 422.98 409.4 424.72 410.66C426.79 412.15 427.4 414.99 424.96 418.37C423.95 419.78 422.56 420.89 421.67 421.31L419.8 419.09C420.71 418.63 421.94 417.74 422.8 416.56C423.72 415.28 423.68 414.22 422.88 413.64C422.11 413.09 421.25 413.35 419.67 414.46C417.46 415.98 415.35 416.51 413.56 415.22C411.46 413.7 411.15 410.78 413.24 407.9C414.26 406.49 415.26 405.68 416.13 405.21L417.91 407.44L417.9 407.43ZM400.05 426.5L402.33 428.15L398.86 432.95L401.42 434.8L404.69 430.27L406.95 431.91L403.68 436.44L406.6 438.55L410.26 433.49L412.54 435.14L406.87 442.98L394.56 434.08L400.04 426.5H400.05ZM389.83 440.64L399.8 447.85L403.34 442.96L405.68 444.65L400.13 452.32L387.82 443.42L389.83 440.65V440.64ZM386.25 445.6L388.53 447.25L385.06 452.05L387.62 453.9L390.9 449.37L393.16 451.01L389.88 455.54L392.8 457.65L396.46 452.59L398.74 454.24L393.08 462.08L380.77 453.18L386.25 445.6ZM375.51 460.26C376.83 458.43 378.03 457.35 379.36 456.98C380.49 456.65 381.65 456.88 382.79 457.7C384.34 458.82 384.61 460.71 384.23 462.05L384.29 462.09C385.26 461.48 386.41 461.59 387.76 462.09C389.44 462.72 391.32 463.52 391.96 463.63L389.9 466.48C389.4 466.4 388.19 466 386.42 465.25C384.62 464.48 383.83 464.71 382.98 465.85L382.39 466.67L387.23 470.17L385.24 472.93L373.09 464.15C373.59 463.15 374.43 461.75 375.51 460.26Z" fill="white"/>
<path d="M407.03 421.25L407 421.29C407.6 422 408.4 422.86 408.97 423.57L411.05 426.19L413.02 423.47L409.85 422.35C408.96 422.04 407.89 421.6 407.02 421.25H407.03Z" fill="white"/>
<path d="M377.82 461.46C377.33 462.14 377.09 462.55 377 462.79L380.38 465.23L381.17 464.13C382.17 462.74 382.07 461.42 381 460.64C379.89 459.84 378.75 460.18 377.82 461.46Z" fill="white"/>
<path d="M524.33 330.2C526.11 329.79 527 328.64 526.66 327.14C526.34 325.77 525.21 325.18 523.52 325.57C522.86 325.72 522.41 325.87 522.18 325.99L523.19 330.36C523.49 330.36 523.83 330.3 524.33 330.19V330.2Z" fill="white"/>
<path d="M499.96 345.06C502.77 343.67 503.84 341.22 502.21 337.97C500.79 335.15 498.39 334.49 495.73 335.82C495.06 336.15 494.63 336.45 494.4 336.64L498.87 345.53C499.16 345.46 499.61 345.24 499.97 345.05L499.96 345.06Z" fill="white"/>
<path d="M423.03 354.07H466.14V400.37C477.88 387.88 491.31 376.06 505.02 367.73C512.28 363.3 519.57 359.84 526.66 357.54C533.76 355.24 540.63 354.07 547.46 354.06C563.27 354.06 577.99 358.16 590.79 365.34L627.17 351.86L621.82 310.28C599.84 297.93 574.48 290.83 547.57 290.82H547.46C533.04 290.82 519.27 293.38 506.53 297.59C484.15 305 464.83 317.23 448.06 330.83C438.91 338.28 430.64 346.15 423.04 354.07H423.03ZM563.65 320.6L564.71 324.42C565.04 325.58 565.27 326.42 565.5 327.46H565.55C566.01 326.57 566.47 325.75 567.06 324.73L569.05 321.3L572.87 321.79L566.78 329.95L565.97 336.23L562.57 335.79L563.36 329.62L559.74 320.11L563.65 320.61V320.6ZM550.94 319.67C555.61 319.67 558.15 323.17 558.15 327.39C558.15 332.4 555.14 335.4 550.68 335.39C546.19 335.39 543.53 331.97 543.54 327.62C543.54 323.06 546.48 319.66 550.94 319.67ZM535.78 320.85L537.19 333.08L543.2 332.39L543.53 335.26L534.12 336.35L532.38 321.25L535.78 320.86V320.85ZM522.79 323.06C524.85 322.58 526.42 322.64 527.59 323.2C528.73 323.72 529.63 324.82 529.96 326.26C530.3 327.71 530.12 329.07 529.41 330.09C528.51 331.41 526.94 332.31 524.96 332.76C524.52 332.86 524.12 332.93 523.8 332.93L525.02 338.25L521.7 339.01L518.33 324.4C519.32 323.99 520.74 323.52 522.78 323.05L522.79 323.06ZM514.45 325.33L515.39 327.99L509.8 329.98L510.86 332.96L516.13 331.09L517.07 333.73L511.8 335.6L513.01 339L518.9 336.91L519.84 339.57L510.72 342.81L505.63 328.48L514.45 325.35V325.33ZM494.22 333.63C496.82 332.32 498.76 331.96 500.54 332.28C502.48 332.62 504.21 333.85 505.41 336.25C506.72 338.85 506.67 341.12 505.93 342.88C505.1 344.79 503.18 346.46 500.52 347.79C498.93 348.59 497.73 349.07 496.93 349.34L490.23 336.01C491.27 335.26 492.68 334.4 494.21 333.63H494.22Z" fill="white"/>
<path d="M550.86 332.66C553.18 332.66 554.52 330.45 554.52 327.5C554.52 324.75 553.24 322.4 550.87 322.4C548.52 322.4 547.17 324.61 547.17 327.56C547.17 330.56 548.56 332.66 550.86 332.66Z" fill="white"/>
<path d="M664.6 439.18L664.64 442.54L667.86 441.55C668.76 441.27 669.88 440.98 670.78 440.74V440.7C669.88 440.49 668.72 440.27 667.84 440.04L664.6 439.18Z" fill="white"/>
<path d="M699.53 442.99V442.95V442.92V442.86C699.53 400.99 682.44 362.78 654.99 335.38C650.27 330.64 645.08 326.32 639.67 322.19C638.49 321.29 637.4 320.41 636.32 319.63C635.67 319.16 635.01 318.7 634.35 318.24L632.33 316.84L632.35 316.81C630.9 315.84 629.45 314.88 627.97 313.96L633.33 355.61L596.86 369.13C599.54 370.93 602.13 372.85 604.6 374.93L609.32 378.9L609.05 378.94C609.46 379.33 609.87 379.7 610.27 380.1C626.39 396.27 636.27 418.3 636.29 442.93C636.29 457.47 632.76 471.08 626.62 483.12V483.17L626.3 483.78C624.68 486.89 622.87 489.87 620.9 492.76L628.7 537.37L672.26 529.76C674.66 526.31 676.94 522.77 679.06 519.11C692.04 496.7 699.54 470.67 699.54 443L699.53 442.99ZM672.13 424.55C672.45 426.78 672.34 428.39 671.65 429.59C671.07 430.61 670.07 431.25 668.68 431.45C666.78 431.72 665.27 430.55 664.62 429.32H664.55C664.28 430.44 663.38 431.16 662.05 431.74C660.4 432.46 658.5 433.19 657.96 433.56L657.46 430.08C657.88 429.79 659.02 429.24 660.81 428.55C662.65 427.85 663.05 427.14 662.87 425.73L662.73 424.73L656.81 425.58L656.33 422.21L671.17 420.07C671.5 421.14 671.87 422.73 672.13 424.56V424.55ZM644.61 391.03C642.45 387.1 644.15 383.13 647.97 381.04C651.96 378.85 656.36 379.78 658.5 383.69C660.75 387.78 658.91 391.7 655.22 393.72C650.83 396.13 646.76 394.94 644.61 391.03ZM649.03 399.09L663 393.65C663.55 394.57 664.22 395.91 664.98 397.87C665.75 399.84 665.92 401.4 665.53 402.64C665.18 403.84 664.23 404.89 662.84 405.43C661.45 405.97 660.08 405.99 658.97 405.43C657.54 404.73 656.42 403.3 655.68 401.41C655.52 400.99 655.39 400.6 655.34 400.28L650.26 402.26L649.02 399.09H649.03ZM668.17 407.12L670.56 416.16L667.84 416.88L666.33 411.15L663.28 411.96L664.71 417.36L662.01 418.07L660.58 412.67L657.09 413.59L658.68 419.63L655.95 420.35L653.49 411L668.18 407.13L668.17 407.12ZM669.89 471.88L667.13 471.32L668.32 465.51L665.23 464.88L664.11 470.36L661.37 469.8L662.49 464.32L658.95 463.6L657.7 469.72L654.94 469.16L656.88 459.68L671.77 462.72L669.9 471.89L669.89 471.88ZM672.29 459.67L669.42 459.41L669.8 455.28L657.54 454.15L657.85 450.74L670.11 451.87L670.48 447.78L673.35 448.04L672.28 459.67H672.29ZM658.23 448.03L658.18 444.31L662.07 443.08L662.01 438.73L658.09 437.7L658.04 434.16L673.31 438.58L673.37 443.09L658.23 448.03Z" fill="white"/>
<path d="M656.09 384.93C654.96 382.88 652.37 382.75 649.78 384.18C647.15 385.62 645.99 387.86 647.1 389.87C648.22 391.91 650.79 392.01 653.38 390.59C655.79 389.26 657.23 387.01 656.09 384.94V384.93Z" fill="white"/>
<path d="M661.52 402.29C662.82 401.78 663.25 400.58 662.62 398.96C662.38 398.33 662.16 397.9 662.01 397.7L657.83 399.33C657.87 399.63 657.97 399.95 658.16 400.43C658.82 402.13 660.09 402.85 661.52 402.29Z" fill="white"/>
<path d="M667.93 428.09C669.29 427.89 669.87 426.85 669.65 425.29C669.53 424.46 669.42 424 669.32 423.77L665.19 424.36L665.38 425.7C665.62 427.4 666.62 428.28 667.93 428.09Z" fill="white"/>
<path d="M410.22 173.8H343.83L302.42 140.04H252.45V134.94H304.23L345.64 168.7H410.22V173.8Z" fill="#101820"/>
<path d="M331.907 116.422L330.578 117.752L346.516 133.69L347.845 132.36L331.907 116.422Z" fill="#101820"/>
<path d="M311.5 107.72C315.697 107.72 319.1 104.317 319.1 100.12C319.1 95.9226 315.697 92.52 311.5 92.52C307.303 92.52 303.9 95.9226 303.9 100.12C303.9 104.317 307.303 107.72 311.5 107.72Z" fill="#101820"/>
<path d="M386.27 89.54C390.467 89.54 393.87 86.1374 393.87 81.94C393.87 77.7426 390.467 74.34 386.27 74.34C382.073 74.34 378.67 77.7426 378.67 81.94C378.67 86.1374 382.073 89.54 386.27 89.54Z" fill="#101820"/>
<path d="M455.63 85.14C459.827 85.14 463.23 81.7374 463.23 77.54C463.23 73.3426 459.827 69.94 455.63 69.94C451.433 69.94 448.03 73.3426 448.03 77.54C448.03 81.7374 451.433 85.14 455.63 85.14Z" fill="#101820"/>
<path d="M319.25 75.45C323.447 75.45 326.85 72.0474 326.85 67.85C326.85 63.6526 323.447 60.25 319.25 60.25C315.053 60.25 311.65 63.6526 311.65 67.85C311.65 72.0474 315.053 75.45 319.25 75.45Z" fill="#101820"/>
<path d="M277.11 121.64C281.307 121.64 284.71 118.237 284.71 114.04C284.71 109.843 281.307 106.44 277.11 106.44C272.913 106.44 269.51 109.843 269.51 114.04C269.51 118.237 272.913 121.64 277.11 121.64Z" fill="#101820"/>
<path d="M252.5 144.3C256.697 144.3 260.1 140.897 260.1 136.7C260.1 132.503 256.697 129.1 252.5 129.1C248.303 129.1 244.9 132.503 244.9 136.7C244.9 140.897 248.303 144.3 252.5 144.3Z" fill="#101820"/>
<path d="M246.45 172.93C250.647 172.93 254.05 169.527 254.05 165.33C254.05 161.133 250.647 157.73 246.45 157.73C242.253 157.73 238.85 161.133 238.85 165.33C238.85 169.527 242.253 172.93 246.45 172.93Z" fill="#101820"/>
<path d="M296.53 236.12C300.727 236.12 304.13 232.717 304.13 228.52C304.13 224.323 300.727 220.92 296.53 220.92C292.333 220.92 288.93 224.323 288.93 228.52C288.93 232.717 292.333 236.12 296.53 236.12Z" fill="#101820"/>
<path d="M316.57 261.15C320.767 261.15 324.17 257.747 324.17 253.55C324.17 249.353 320.767 245.95 316.57 245.95C312.373 245.95 308.97 249.353 308.97 253.55C308.97 257.747 312.373 261.15 316.57 261.15Z" fill="#101820"/>
<path d="M411.63 258.7C415.827 258.7 419.23 255.297 419.23 251.1C419.23 246.903 415.827 243.5 411.63 243.5C407.433 243.5 404.03 246.903 404.03 251.1C404.03 255.297 407.433 258.7 411.63 258.7Z" fill="#101820"/>
<path d="M440.09 302.82C444.287 302.82 447.69 299.417 447.69 295.22C447.69 291.023 444.287 287.62 440.09 287.62C435.893 287.62 432.49 291.023 432.49 295.22C432.49 299.417 435.893 302.82 440.09 302.82Z" fill="#101820"/>
<path d="M449.26 251.85C453.457 251.85 456.86 248.447 456.86 244.25C456.86 240.053 453.457 236.65 449.26 236.65C445.063 236.65 441.66 240.053 441.66 244.25C441.66 248.447 445.063 251.85 449.26 251.85Z" fill="#101820"/>
<path d="M501.08 257.98C505.277 257.98 508.68 254.577 508.68 250.38C508.68 246.183 505.277 242.78 501.08 242.78C496.883 242.78 493.48 246.183 493.48 250.38C493.48 254.577 496.883 257.98 501.08 257.98Z" fill="#101820"/>
<path d="M483.48 222.89C487.677 222.89 491.08 219.487 491.08 215.29C491.08 211.093 487.677 207.69 483.48 207.69C479.283 207.69 475.88 211.093 475.88 215.29C475.88 219.487 479.283 222.89 483.48 222.89Z" fill="#101820"/>
<path d="M520.2 193.6C524.397 193.6 527.8 190.197 527.8 186C527.8 181.803 524.397 178.4 520.2 178.4C516.003 178.4 512.6 181.803 512.6 186C512.6 190.197 516.003 193.6 520.2 193.6Z" fill="#101820"/>
<path d="M520.2 165.57C524.397 165.57 527.8 162.167 527.8 157.97C527.8 153.773 524.397 150.37 520.2 150.37C516.003 150.37 512.6 153.773 512.6 157.97C512.6 162.167 516.003 165.57 520.2 165.57Z" fill="#101820"/>
<path d="M490.62 318.64C494.817 318.64 498.22 315.237 498.22 311.04C498.22 306.843 494.817 303.44 490.62 303.44C486.423 303.44 483.02 306.843 483.02 311.04C483.02 315.237 486.423 318.64 490.62 318.64Z" fill="#101820"/>
<path d="M277.11 193.5C281.307 193.5 284.71 190.097 284.71 185.9C284.71 181.703 281.307 178.3 277.11 178.3C272.913 178.3 269.51 181.703 269.51 185.9C269.51 190.097 272.913 193.5 277.11 193.5Z" fill="#101820"/>
<path d="M482.22 117.63C485.964 117.63 489 114.594 489 110.85C489 107.106 485.964 104.07 482.22 104.07C478.475 104.07 475.44 107.106 475.44 110.85C475.44 114.594 478.475 117.63 482.22 117.63Z" fill="#101820"/>
<path d="M415.54 204.16H399.02V199.06H413.79L433.09 184.07H524.43V189.17H434.83L415.54 204.16Z" fill="#101820"/>
<path d="M486.05 311.74L469.85 305.74V256.76L451.63 250L453.4 245.22L474.95 253.22V302.19L487.82 306.96L486.05 311.74Z" fill="#101820"/>
<path d="M344.94 184.33H278.07V189.43H344.94V184.33Z" fill="#101820"/>
<path d="M469.15 158.24H440.34V153.14H467.04L479.41 140.77V110.05H484.51V142.88L469.15 158.24Z" fill="#101820"/>
<path d="M293.8 230.33L285.32 221.84H264.87L242.96 199.93V166.82H248.06V197.82L266.98 216.75H287.43L297.4 226.72L293.8 230.33Z" fill="#101820"/>
<path d="M503 247.61H497.9V227.25L487.95 221.32L490.56 216.94L503 224.36V247.61Z" fill="#101820"/>
<path d="M523.34 157.55H518.24V121.83L476.5 80.09H453.08V74.99H478.61L523.34 119.72V157.55Z" fill="#101820"/>
<path d="M279.7 115.86H274.61V85.55L294.86 65.3H323.78V70.39H296.97L279.7 87.66V115.86Z" fill="#101820"/>
<path d="M445.27 295.61H434.51L409.08 275.24V247.61H414.18V272.79L436.3 290.51H445.27V295.61Z" fill="#101820"/>
<path d="M388.82 86.32H383.72V108.34H388.82V86.32Z" fill="#101820"/>
<path d="M433.28 110.85H428.18V83.51L410.93 64.1H362.38L313.06 102.14L309.95 98.1L360.64 59H413.22L433.28 81.57V110.85Z" fill="#101820"/>
<path d="M373.82 256.1H316.56V251H372.03L383.72 241.61V227.25H388.82V244.05L373.82 256.1Z" fill="#101820"/>
<path d="M445.91 212.23C445.91 220.51 439.17 227.25 430.89 227.25H341.64C333.36 227.25 326.62 220.51 326.62 212.23V122.98C326.62 114.7 333.36 107.96 341.64 107.96H430.89C439.17 107.96 445.91 114.7 445.91 122.98V212.23Z" fill="#101820"/>
<path d="M368.63 140.75L344.99 193.97H357.61L362.35 182.57H387L391.74 193.97H404.66L380.79 140.75H368.63ZM366.24 173.21L374.68 152.92L383.12 173.21H366.25H366.24Z" fill="white"/>
<path d="M422.61 140.75H410.22V193.97H422.61V140.75Z" fill="white"/>
</svg>
