<svg xmlns="http://www.w3.org/2000/svg" width="176" height="38" viewBox="0 0 176 38" fill="none"><g opacity="0.7"><path d="M30.0319 2.21812H33.0933L38.2866 11.4435L43.4922 2.21812H46.4669V17.3881H43.988V5.75779L39.4145 13.8115H37.0843L32.5232 5.75779V17.3881H30.0319V2.21812ZM54.5232 17.6471C53.3705 17.6471 52.3542 17.4005 51.4742 16.9071C50.6066 16.4015 49.9001 15.6738 49.4291 14.8105C48.9333 13.9225 48.6854 12.8988 48.6854 11.7518C48.6854 10.5925 48.9333 9.56879 49.4043 8.66845C49.8694 7.77795 50.5783 7.03664 51.4491 6.53029C52.3199 6.02393 53.3169 5.77321 54.3249 5.80712C55.428 5.80712 56.37 6.05379 57.1632 6.57179C57.9564 7.07745 58.5638 7.79279 58.9852 8.70545C59.419 9.61812 59.6297 10.7035 59.6297 11.9368V12.6028H51.1643C51.3131 13.5278 51.6973 14.2555 52.3046 14.7858C52.9119 15.3161 53.668 15.5875 54.5976 15.5875C55.3412 15.5875 55.9857 15.4641 56.5311 15.2545C57.064 15.0448 57.5598 14.7118 58.0432 14.2678L59.357 15.8711C58.0358 17.0606 56.3042 17.6968 54.5232 17.6471ZM56.3452 8.64379C56.0735 8.38158 55.7509 8.17739 55.3971 8.04378C55.0433 7.91016 54.6658 7.84993 54.2877 7.86679C53.9063 7.85578 53.5266 7.92107 53.1711 8.05877C52.8155 8.19648 52.4914 8.4038 52.2178 8.66845C51.6363 9.25202 51.2657 10.0111 51.1643 10.8268H57.2376C57.21 10.0204 56.8935 9.25047 56.3452 8.65612V8.64379ZM62.6539 8.08879H60.3609V6.07845H62.6539V2.76079H65.0584V6.09079H68.5412V8.08879H65.0708V13.1701C65.0708 14.0088 65.1947 14.6131 65.5046 14.9708C65.7897 15.3408 66.2978 15.5135 67.0167 15.5135C67.5277 15.5226 68.0384 15.4813 68.5412 15.3901V17.3635C67.8963 17.5464 67.2287 17.6378 66.5581 17.6348C63.9553 17.6348 62.6539 16.2411 62.6539 13.4415V8.08879ZM81.0843 17.3758H78.7294V15.7971C78.3204 16.3768 77.7626 16.8578 77.1181 17.1661C76.4736 17.4868 75.7423 17.6595 74.9119 17.6595C73.9593 17.6739 73.0236 17.4079 72.2224 16.8948C71.4245 16.3749 70.7822 15.6506 70.3632 14.7981C69.9012 13.8408 69.6719 12.7888 69.6939 11.7271C69.6939 10.5678 69.917 9.55645 70.3756 8.65612C70.7994 7.78656 71.4648 7.05607 72.2929 6.55115C73.121 6.04623 74.0772 5.78803 75.0483 5.80712C75.8291 5.80712 76.5356 5.96745 77.1553 6.26345C77.775 6.55945 78.308 7.00345 78.717 7.53379V6.07845H81.0719L81.0843 17.3758ZM78.6798 10.0375C78.4415 9.40412 78.0096 8.86113 77.4448 8.48499C76.88 8.10885 76.2109 7.91851 75.5316 7.94079C74.5029 7.94079 73.6725 8.28612 73.0652 8.96445C72.4578 9.64279 72.1604 10.5678 72.1604 11.7271C72.1604 12.8865 72.4454 13.7991 73.028 14.4775C73.6229 15.1558 74.4285 15.5011 75.4325 15.5011C76.1762 15.5011 76.833 15.3161 77.4156 14.9338C77.9981 14.5638 78.4319 14.0458 78.6798 13.4168V10.0375ZM86.9469 2.21812H93.268C95.028 2.21812 96.3666 2.56345 97.259 3.25412C97.7026 3.59071 98.0582 4.02876 98.2955 4.53114C98.5328 5.03353 98.6449 5.58545 98.6223 6.14012C98.6223 7.81745 97.7919 8.93979 96.1435 9.51945C98.2877 10.0498 99.366 11.2831 99.366 13.2195C99.366 14.5268 98.8826 15.5505 97.9283 16.2781C96.9739 17.0058 95.5857 17.3881 93.7885 17.3881H86.9469V2.21812ZM92.9581 8.70545C95.0156 8.70545 96.0443 7.96545 96.0443 6.49779C96.0443 5.77012 95.7964 5.23979 95.3131 4.89445C94.6368 4.50797 93.8598 4.33185 93.0821 4.38879H89.4257V8.70545H92.9581ZM93.7018 15.2051C95.7592 15.2051 96.788 14.4405 96.788 12.9358C96.788 12.2328 96.5401 11.7025 96.0567 11.3325C95.5733 10.9625 94.7305 10.8021 93.5407 10.8021H89.4257V15.2051H93.7018ZM111.277 17.3758H108.91V15.7601C108.512 16.3615 107.966 16.851 107.324 17.1815C106.681 17.512 105.964 17.6723 105.241 17.6471C103.878 17.6471 102.849 17.2278 102.13 16.3891C101.411 15.5505 101.039 14.3541 101.039 12.8001V6.07845H103.444V12.5165C103.444 13.5648 103.63 14.3418 104.002 14.8351C104.373 15.3285 104.968 15.5875 105.774 15.5875C106.456 15.5875 107.075 15.4148 107.621 15.0571C108.154 14.6871 108.575 14.1938 108.872 13.5525V6.07845H111.277V17.3758ZM121.8 16.6975C120.791 17.3791 119.585 17.7126 118.367 17.6471C117.152 17.6471 116.098 17.4375 115.194 17.0305C114.289 16.6235 113.62 16.0438 113.173 15.3285L114.797 13.9471C115.132 14.4405 115.603 14.8475 116.198 15.1435C116.792 15.4395 117.499 15.5875 118.329 15.5875C119.866 15.5875 120.635 15.1435 120.635 14.2678C120.635 13.8978 120.511 13.5895 120.263 13.3551C119.894 13.0812 119.457 12.9147 118.999 12.8741L116.78 12.5041C115.888 12.3938 115.052 12.0102 114.388 11.4065C114.112 11.1278 113.895 10.7959 113.753 10.4311C113.61 10.0663 113.543 9.67635 113.558 9.28512C113.558 8.23679 113.991 7.39812 114.834 6.75679C115.852 6.0733 117.066 5.73979 118.292 5.80712C119.346 5.80712 120.275 6.01679 121.118 6.43612C121.881 6.7967 122.526 7.36554 122.977 8.07645L121.316 9.30979C121.016 8.84341 120.585 8.47469 120.077 8.24912C119.469 7.97982 118.809 7.84919 118.143 7.86679C117.462 7.86679 116.929 7.99012 116.557 8.21212C116.386 8.30762 116.243 8.44742 116.145 8.61675C116.047 8.78608 115.997 8.97865 115.999 9.17412C115.999 9.53179 116.123 9.80312 116.346 10.0005C116.569 10.1978 116.966 10.3335 117.487 10.4321L119.99 10.8638C120.982 11.0365 121.75 11.4065 122.283 11.9738C122.816 12.5411 123.076 13.2565 123.076 14.1198C123.076 15.1928 122.655 16.0561 121.8 16.6975ZM125.27 4.16679C125.124 4.02657 125.009 3.85767 124.932 3.67082C124.856 3.48397 124.819 3.28326 124.824 3.08145C124.824 2.63745 124.973 2.26745 125.27 1.98379C125.555 1.70012 125.94 1.56445 126.398 1.56445C126.869 1.56445 127.241 1.70012 127.538 1.98379C127.836 2.26745 127.985 2.63745 127.985 3.08145C127.985 3.51312 127.836 3.88312 127.538 4.16679C127.253 4.45045 126.869 4.59845 126.398 4.59845C125.94 4.59845 125.555 4.45045 125.27 4.16679ZM125.196 6.07845H127.6V17.3758H125.196V6.07845ZM130.253 6.07845H132.62V7.74345C133.022 7.13216 133.575 6.63405 134.226 6.29708C134.877 5.96011 135.605 5.79562 136.338 5.81945C137.714 5.81945 138.768 6.23879 139.499 7.07745C140.243 7.91612 140.614 9.11245 140.614 10.6788V17.4005H138.198V10.9378C138.198 9.88945 138.012 9.11245 137.627 8.61912C137.256 8.12579 136.636 7.86679 135.83 7.86679C135.111 7.86679 134.492 8.05179 133.946 8.40945C133.401 8.77945 132.967 9.27279 132.657 9.92645V17.3758H130.253V6.07845ZM148.287 17.6471C147.134 17.6471 146.118 17.4005 145.238 16.9071C144.37 16.4015 143.663 15.6738 143.192 14.8105C142.697 13.9225 142.449 12.8988 142.449 11.7518C142.449 10.5925 142.697 9.56879 143.168 8.66845C143.633 7.77795 144.342 7.03664 145.212 6.53029C146.083 6.02393 147.08 5.77321 148.088 5.80712C149.191 5.80712 150.133 6.05379 150.927 6.57179C151.72 7.07745 152.315 7.79279 152.749 8.70545C153.17 9.61812 153.381 10.7035 153.381 11.9368V12.6028H144.915C145.076 13.5278 145.461 14.2555 146.068 14.7858C146.663 15.3161 147.431 15.5875 148.361 15.5875C149.105 15.5875 149.749 15.4641 150.282 15.2545C150.815 15.0448 151.323 14.7118 151.794 14.2678L153.12 15.8711C151.801 17.0628 150.068 17.6994 148.287 17.6471ZM150.109 8.64379C149.837 8.38158 149.514 8.17739 149.16 8.04378C148.807 7.91016 148.429 7.84993 148.051 7.86679C147.67 7.85578 147.29 7.92107 146.934 8.05877C146.579 8.19648 146.255 8.4038 145.981 8.66845C145.4 9.25202 145.029 10.0111 144.928 10.8268H151.001C150.976 10.02 150.659 9.24927 150.109 8.65612V8.64379ZM163.259 16.6975C162.25 17.3791 161.044 17.7126 159.826 17.6471C158.611 17.6471 157.558 17.4375 156.653 17.0305C155.748 16.6235 155.079 16.0438 154.632 15.3285L156.256 13.9471C156.591 14.4405 157.062 14.8475 157.657 15.1435C158.264 15.4395 158.971 15.5875 159.789 15.5875C161.325 15.5875 162.094 15.1435 162.094 14.2678C162.094 13.8978 161.97 13.5895 161.722 13.3551C161.357 13.0833 160.924 12.9169 160.47 12.8741L158.239 12.5041C157.351 12.3913 156.52 12.0079 155.86 11.4065C155.583 11.1278 155.367 10.7959 155.224 10.4311C155.081 10.0663 155.015 9.67635 155.029 9.28512C155.029 8.23679 155.451 7.39812 156.306 6.75679C157.32 6.0759 158.53 5.74251 159.751 5.80712C160.805 5.80712 161.747 6.01679 162.59 6.44845C163.353 6.80904 163.998 7.37787 164.449 8.08879L162.788 9.32212C162.484 8.8539 162.049 8.485 161.536 8.26145C160.933 7.98972 160.277 7.85491 159.615 7.86679C158.933 7.86679 158.4 7.99012 158.029 8.21212C157.857 8.30762 157.715 8.44742 157.617 8.61675C157.518 8.78608 157.468 8.97865 157.471 9.17412C157.471 9.54412 157.595 9.81545 157.805 10.0005C158.041 10.1978 158.425 10.3458 158.958 10.4321L161.449 10.8761C162.441 11.0488 163.222 11.4188 163.755 11.9861C164.275 12.5411 164.548 13.2565 164.548 14.1198C164.548 15.1928 164.114 16.0561 163.259 16.6975ZM174.538 16.6975C173.525 17.3817 172.314 17.7154 171.092 17.6471C170.002 17.6756 168.919 17.4651 167.919 17.0305C167.096 16.6729 166.397 16.0807 165.911 15.3285L167.523 13.9471C167.87 14.4405 168.328 14.8475 168.936 15.1435C169.531 15.4395 170.237 15.5875 171.055 15.5875C172.592 15.5875 173.373 15.1435 173.373 14.2678C173.373 13.8978 173.249 13.5895 172.989 13.3551C172.624 13.0833 172.19 12.9169 171.737 12.8741L169.506 12.5041C168.618 12.3913 167.786 12.0079 167.126 11.4065C166.85 11.1278 166.633 10.7959 166.491 10.4311C166.348 10.0663 166.281 9.67635 166.296 9.28512C166.296 8.23679 166.717 7.39812 167.572 6.75679C168.586 6.0759 169.796 5.74251 171.018 5.80712C172.071 5.80712 173.013 6.01679 173.856 6.43612C174.619 6.7967 175.264 7.36554 175.715 8.07645L174.042 9.30979C173.742 8.84341 173.311 8.47469 172.803 8.24912C172.199 7.98163 171.542 7.85103 170.881 7.86679C170.2 7.86679 169.667 7.99012 169.295 8.21212C169.124 8.30762 168.981 8.44742 168.883 8.61675C168.785 8.78608 168.735 8.97865 168.737 9.17412C168.737 9.53179 168.861 9.80312 169.072 10.0005C169.307 10.1978 169.692 10.3335 170.225 10.4321L172.716 10.8638C173.707 11.0365 174.488 11.4065 175.009 11.9738C175.542 12.5411 175.814 13.2565 175.814 14.1198C175.814 15.1928 175.381 16.0561 174.525 16.6975H174.538ZM30.0195 21.1745H35.8821C37.8528 21.1745 39.3649 21.6061 40.4432 22.4941C41.5091 23.3575 42.0545 24.6278 42.0545 26.2681C42.0545 27.8961 41.5215 29.1541 40.4432 30.0298C39.3649 30.9055 37.8528 31.3495 35.8821 31.3495H32.5356V36.3321H30.0195V21.1745ZM35.6714 29.1295C36.9604 29.1295 37.9147 28.8828 38.5345 28.4141C39.1542 27.9455 39.464 27.2301 39.464 26.2681C39.464 25.2815 39.1542 24.5538 38.5345 24.0975C37.9147 23.6288 36.9604 23.3945 35.6714 23.3945H32.548V29.1171L35.6714 29.1295ZM54.3125 36.3445H51.9576V34.7535C51.5485 35.3331 50.9908 35.8018 50.3463 36.1101C49.7018 36.4431 48.9705 36.6035 48.1401 36.6035C47.1832 36.6203 46.2429 36.3542 45.4381 35.8388C44.6448 35.3172 44.007 34.5931 43.5914 33.7421C43.1312 32.7886 42.902 31.741 42.9221 30.6835C42.9221 29.5241 43.1452 28.5005 43.6038 27.6001C44.0276 26.7306 44.693 26.0001 45.5211 25.4951C46.3492 24.9902 47.3054 24.732 48.2764 24.7511C49.0573 24.7635 49.7638 24.9115 50.3835 25.2198C51.0032 25.5035 51.5362 25.9475 51.9452 26.4901V25.0348H54.3001L54.3125 36.3445ZM51.908 28.9938C51.6677 28.3628 51.2348 27.8224 50.6702 27.4486C50.1056 27.0748 49.4376 26.8863 48.7598 26.9095C47.7311 26.9095 46.9007 27.2548 46.2933 27.9331C45.686 28.6115 45.3762 29.5365 45.3762 30.6835C45.3762 31.8428 45.6736 32.7678 46.2685 33.4461C46.8635 34.1245 47.6443 34.4575 48.6607 34.4575C49.4043 34.4575 50.0612 34.2725 50.6438 33.9025C51.2139 33.5325 51.6601 33.0021 51.908 32.3855V28.9938ZM56.7418 25.0471H59.1091V26.7368C59.7908 25.5035 60.7576 24.8868 61.9846 24.8868C62.2201 24.8868 62.4556 24.8991 62.6911 24.9361V27.1315L61.9474 27.0945C60.5469 27.0945 59.6173 27.7605 59.1463 29.0925V36.3445H56.7418V25.0471ZM65.6905 27.0451H64.0421V25.0471H65.6905V21.7171H68.095V25.0471H71.5778V27.0451H68.1074V32.1265C68.1074 32.9775 68.2314 33.5818 68.5412 33.9395C68.8263 34.3095 69.3345 34.4821 70.0533 34.4821C70.5648 34.4872 71.0754 34.4418 71.5778 34.3465V36.3198C70.933 36.5028 70.2653 36.5941 69.5947 36.5911C66.9919 36.5911 65.6905 35.1975 65.6905 32.4101V27.0451ZM73.5238 25.0471H75.9035V26.6875C76.3067 26.0784 76.8604 25.5828 77.5115 25.248C78.1627 24.9132 78.8893 24.7506 79.6218 24.7758C80.9852 24.7758 82.0387 25.1951 82.77 26.0338C83.5012 26.8725 83.8854 28.0688 83.8854 29.6228V36.3568H81.4809V29.9188C81.4809 28.8705 81.2826 28.0811 80.8984 27.5878C80.5266 27.0945 79.9069 26.8478 79.1012 26.8478C78.3823 26.8478 77.7626 27.0205 77.2173 27.3905C76.6719 27.7605 76.2505 28.2538 75.9407 28.8951V36.3568H73.5238V25.0471ZM91.5576 36.6158C90.4049 36.6158 89.3885 36.3691 88.5085 35.8635C87.6409 35.3701 86.9345 34.6301 86.4635 33.7668C85.9677 32.8788 85.7198 31.8675 85.7198 30.7205C85.7198 29.5488 85.9677 28.5251 86.4387 27.6371C86.902 26.7443 87.6102 26.0005 88.4811 25.4919C89.352 24.9833 90.35 24.7307 91.3592 24.7635C92.4623 24.7635 93.4043 25.0225 94.1976 25.5281C94.9908 26.0461 95.5981 26.7615 96.0195 27.6618C96.4533 28.5868 96.664 29.6598 96.664 30.8931V31.5715H88.1987C88.3474 32.4965 88.7316 33.2241 89.339 33.7545C89.9463 34.2848 90.7023 34.5561 91.6319 34.5561C92.3756 34.5561 93.0201 34.4451 93.5531 34.2355C94.0984 34.0135 94.5942 33.6805 95.0652 33.2488L96.3914 34.8398C95.0701 36.0293 93.3386 36.6655 91.5576 36.6158ZM93.3795 27.6125C93.1079 27.3502 92.7853 27.1461 92.4315 27.0124C92.0777 26.8788 91.7001 26.8186 91.3221 26.8355C90.9407 26.8244 90.561 26.8897 90.2054 27.0274C89.8499 27.1651 89.5258 27.3725 89.2522 27.6371C88.6776 28.2192 88.3117 28.9734 88.2111 29.7831H94.2843C94.2567 28.9744 93.9352 28.2032 93.3795 27.6125ZM98.7091 25.0471H101.064V26.7738C101.808 25.5158 102.836 24.8868 104.125 24.8868C104.534 24.8868 104.869 24.9238 105.154 24.9855V27.1685C104.782 27.1191 104.411 27.0945 104.051 27.0945C102.613 27.0945 101.634 27.7235 101.114 29.0061V36.3445H98.7091V25.0471ZM114.45 35.6538C113.439 36.3424 112.228 36.6804 111.004 36.6158C109.79 36.6158 108.736 36.4061 107.831 35.9868C106.927 35.5675 106.257 35.0001 105.811 34.2971L107.435 32.9035C107.769 33.4091 108.24 33.8161 108.835 34.1121C109.43 34.4081 110.149 34.5438 110.967 34.5438C112.504 34.5438 113.272 34.1121 113.272 33.2241C113.272 32.8541 113.149 32.5458 112.901 32.3238C112.537 32.0476 112.104 31.8768 111.649 31.8305L109.418 31.4605C108.525 31.3501 107.689 30.9666 107.026 30.3628C106.749 30.0841 106.533 29.7522 106.39 29.3874C106.248 29.0227 106.181 28.6327 106.195 28.2415C106.195 27.2055 106.629 26.3545 107.472 25.7255C108.488 25.0376 109.703 24.6997 110.93 24.7635C111.983 24.7635 112.913 24.9731 113.756 25.4048C114.519 25.7654 115.164 26.3342 115.615 27.0451L113.954 28.2785C113.654 27.8121 113.223 27.4434 112.715 27.2178C112.108 26.9443 111.447 26.8094 110.781 26.8231C110.1 26.8231 109.579 26.9465 109.195 27.1685C109.024 27.2666 108.883 27.409 108.787 27.5806C108.691 27.7522 108.643 27.9465 108.649 28.1428C108.649 28.4881 108.761 28.7595 108.984 28.9568C109.207 29.1541 109.604 29.3021 110.137 29.4008L112.616 29.8325C113.632 30.0051 114.388 30.3751 114.921 30.9425C115.454 31.5098 115.714 32.2251 115.714 33.0761C115.714 34.1491 115.293 35.0125 114.438 35.6661L114.45 35.6538Z" fill="#292929"></path><path d="M7.44997 1.6875H7.42518L7.40039 4.30217H7.41278C9.16039 4.30217 10.5114 5.65883 13.4736 10.5305L13.6472 10.8265L13.6595 10.8512L15.308 8.4215V8.39683L14.1925 6.6825C13.8112 6.12986 13.4102 5.59096 12.9903 5.06683C11.0319 2.62483 9.39588 1.6875 7.44997 1.6875Z" fill="url(#paint0_linear_2639_375)"></path><path d="M7.42454 1.6875C5.46623 1.69983 3.73102 2.95783 2.4668 4.85717V4.8695L4.77215 6.10283V6.0905C5.51581 5.00517 6.4206 4.3145 7.39975 4.30217H7.41215L7.44933 1.69983L7.42454 1.6875Z" fill="url(#paint1_linear_2639_375)"></path><path d="M2.47943 4.85742L2.46703 4.86976C1.60403 6.2349 1.00697 7.74949 0.707031 9.33442V9.35909L3.28506 9.96342V9.93876C3.52375 8.5795 4.02915 7.28033 4.77238 6.11542V6.09076L2.47943 4.85742Z" fill="url(#paint2_linear_2639_375)"></path><path d="M3.27258 9.93832L0.71934 9.33398V9.35865C0.508636 10.2713 0.421875 11.2087 0.421875 12.1337V12.1583L3.07427 12.3927V12.2077C3.07427 11.4553 3.14864 10.6907 3.28497 9.95065L3.27258 9.93832Z" fill="url(#paint3_linear_2639_375)"></path><path d="M3.14864 13.2072C3.09921 12.9384 3.07021 12.6663 3.06188 12.3932V12.3685L0.421875 12.1465V12.1588C0.421875 12.7138 0.471452 13.2565 0.570607 13.7868V13.8115L3.16103 13.2318L3.14864 13.2072Z" fill="url(#paint4_linear_2639_375)"></path><path d="M3.75604 14.5514C3.43581 14.1766 3.22946 13.7189 3.16111 13.2317V13.207L0.545898 13.7744L0.558293 13.799C0.756603 14.8104 1.14083 15.649 1.68618 16.278L1.69857 16.2904L3.75604 14.5637L3.74365 14.539L3.75604 14.5514Z" fill="url(#paint5_linear_2639_375)"></path><path d="M11.4037 7.33691C9.84202 9.68025 8.90004 11.1602 8.90004 11.1602C6.83019 14.3422 6.11131 15.0576 4.95864 15.0576C4.46286 15.0576 4.06624 14.8849 3.76878 14.5642L3.74399 14.5519L1.68652 16.2786L1.71131 16.3032C2.45497 17.1666 3.53328 17.6599 4.85948 17.6599C6.85497 17.6599 8.29272 16.7226 10.8584 12.3442L12.6555 9.21158C12.1969 8.49625 11.7879 7.86725 11.4037 7.33691Z" fill="#292929"></path><path d="M14.1801 3.63672L14.1677 3.64905C13.7463 4.09305 13.3497 4.57405 12.9902 5.06739C13.3621 5.54839 13.7711 6.09105 14.1801 6.68305C14.6759 5.94305 15.1345 5.35105 15.5807 4.88239L15.5931 4.87005L14.1801 3.63672Z" fill="url(#paint6_linear_2639_375)"></path><path d="M21.7406 3.4022C21.2575 2.88396 20.6755 2.46657 20.0286 2.17437C19.3817 1.88216 18.6828 1.72097 17.9727 1.7002C16.5102 1.7002 15.2832 2.48953 14.1801 3.63653L14.1553 3.64886L15.5682 4.8822H15.593C16.3119 4.12986 17.0184 3.75986 17.8116 3.75986C18.6544 3.75986 19.4353 4.15453 20.117 4.83286L20.1418 4.8452L21.753 3.42686L21.7406 3.4022Z" fill="#292929"></path><path d="M24.8883 11.8007C24.8264 8.3474 23.5869 5.25173 21.765 3.41406H21.7526L20.1289 4.82006H20.1413C21.5171 6.21373 22.4714 8.80373 22.5458 11.7884V11.8131H24.8883V11.8007Z" fill="url(#paint7_linear_2639_375)"></path><path d="M24.8882 11.8131V11.8008H22.5457V12.2571C22.5457 13.0711 22.4217 13.7248 22.1738 14.1934V14.2181L23.909 15.9941V15.9818C24.5535 15.0198 24.8882 13.6878 24.8882 12.0721V11.8131Z" fill="url(#paint8_linear_2639_375)"></path><path d="M22.1744 14.1816V14.2063C21.9513 14.601 21.6414 14.8723 21.2324 14.9956L22.0257 17.45L22.3355 17.3266L22.4223 17.2896L22.4719 17.265C23.0048 17.006 23.4634 16.6113 23.7981 16.1426L23.86 16.044L23.9096 15.9823V15.9576L22.1744 14.1816Z" fill="url(#paint9_linear_2639_375)"></path><path d="M20.7234 15.0575C20.4755 15.0575 20.2276 15.0205 19.9922 14.9219L19.1865 17.4255C20.1117 17.7284 21.1094 17.7327 22.0372 17.4379L21.2564 14.9835C21.0829 15.0329 20.9093 15.0575 20.7234 15.0575Z" fill="url(#paint10_linear_2639_375)"></path><path d="M19.0998 14.1934H19.075L17.2158 16.0927V16.105C17.8727 16.7834 18.5048 17.215 19.1989 17.437L20.0169 14.9334C19.6606 14.7563 19.3475 14.5037 19.0998 14.1934Z" fill="url(#paint11_linear_2639_375)"></path><path d="M19.0876 14.1812C18.2291 13.0901 17.4424 11.9448 16.7327 10.7525L15.3073 8.40918L13.6465 10.8265L13.6589 10.8512L14.6752 12.5162C15.3988 13.7906 16.2501 14.9889 17.2161 16.0928L19.1 14.1935L19.0876 14.1812Z" fill="url(#paint12_linear_2639_375)"></path></g><defs><linearGradient id="paint0_linear_2639_375" x1="869.66" y1="246.99" x2="279.965" y2="85.5513" gradientUnits="userSpaceOnUse"><stop></stop><stop offset="0.45"></stop><stop offset="0.86"></stop></linearGradient><linearGradient id="paint1_linear_2639_375" x1="156.069" y1="101.085" x2="686.729" y2="16.9224" gradientUnits="userSpaceOnUse"><stop offset="0.13"></stop><stop offset="1"></stop></linearGradient><linearGradient id="paint2_linear_2639_375" x1="219.208" y1="141.417" x2="371.073" y2="61.7127" gradientUnits="userSpaceOnUse"><stop offset="0.01"></stop><stop offset="0.69"></stop></linearGradient><linearGradient id="paint3_linear_2639_375" x1="191.18" y1="92.1657" x2="215.423" y2="24.7556" gradientUnits="userSpaceOnUse"><stop offset="0.07"></stop><stop offset="0.99"></stop></linearGradient><linearGradient id="paint4_linear_2639_375" x1="203.148" y1="41.1075" x2="193.358" y2="25.7665" gradientUnits="userSpaceOnUse"><stop offset="0.07"></stop><stop offset="1"></stop></linearGradient><linearGradient id="paint5_linear_2639_375" x1="172.124" y1="25.9628" x2="281.325" y2="74.8628" gradientUnits="userSpaceOnUse"><stop offset="0.07"></stop><stop offset="1"></stop></linearGradient><linearGradient id="paint6_linear_2639_375" x1="139.615" y1="66.6319" x2="247.965" y2="35.2565" gradientUnits="userSpaceOnUse"><stop offset="0.28"></stop><stop offset="0.91"></stop></linearGradient><linearGradient id="paint7_linear_2639_375" x1="314.254" y1="19.0614" x2="487.313" y2="152.652" gradientUnits="userSpaceOnUse"><stop></stop><stop offset="1"></stop></linearGradient><linearGradient id="paint8_linear_2639_375" x1="254.98" y1="17.7134" x2="157.79" y2="58.7667" gradientUnits="userSpaceOnUse"><stop offset="0.06"></stop><stop offset="1"></stop></linearGradient><linearGradient id="paint9_linear_2639_375" x1="133.684" y1="72.3253" x2="256.085" y2="54.9956" gradientUnits="userSpaceOnUse"><stop></stop><stop offset="1"></stop></linearGradient><linearGradient id="paint10_linear_2639_375" x1="101.806" y1="55.9562" x2="351.527" y2="55.9562" gradientUnits="userSpaceOnUse"><stop></stop><stop offset="1"></stop></linearGradient><linearGradient id="paint11_linear_2639_375" x1="176.32" y1="48.4659" x2="309.094" y2="64.8851" gradientUnits="userSpaceOnUse"><stop></stop><stop offset="1"></stop></linearGradient><linearGradient id="paint12_linear_2639_375" x1="258.744" y1="53.9579" x2="563.547" y2="134.54" gradientUnits="userSpaceOnUse"><stop offset="0.28"></stop><stop offset="1"></stop></linearGradient></defs></svg>