<svg xmlns="http://www.w3.org/2000/svg" width="53" height="53" viewBox="0 0 53 53" fill="none"><path fill-rule="evenodd" clip-rule="evenodd" d="M26.6299 0.23999C21.4876 0.23999 16.4607 1.76486 12.1851 4.62178C7.90939 7.4787 4.57691 11.5393 2.60903 16.2902C0.641148 21.0411 0.126261 26.2688 1.12948 31.3123C2.13269 36.3558 4.60895 40.9886 8.24512 44.6248C11.8813 48.2609 16.514 50.7372 21.5575 51.7404C26.6011 52.7436 31.8288 52.2287 36.5797 50.2609C41.3305 48.293 45.3912 44.9605 48.2481 40.6848C51.105 36.4091 52.6299 31.3823 52.6299 26.24C52.6299 19.3444 49.8906 12.7312 45.0147 7.85521C40.1387 2.97927 33.5255 0.23999 26.6299 0.23999ZM26.6299 49.9093C21.9486 49.9093 17.3723 48.5211 13.4799 45.9203C9.58755 43.3195 6.55379 39.6228 4.76232 35.2978C2.97085 30.9728 2.50212 26.2137 3.4154 21.6223C4.32869 17.0309 6.58297 12.8135 9.89318 9.50327C13.2034 6.19306 17.4209 3.93878 22.0122 3.0255C26.6036 2.11221 31.3627 2.58094 35.6877 4.37241C40.0127 6.16389 43.7094 9.19764 46.3102 13.09C48.911 16.9824 50.2992 21.5586 50.2992 26.24C50.2993 29.3483 49.6872 32.4262 48.4977 35.298C47.3083 38.1697 45.5648 40.7791 43.3669 42.977C41.169 45.1749 38.5596 46.9184 35.6879 48.1078C32.8161 49.2973 29.7382 49.9094 26.6299 49.9093Z" fill="black" fill-opacity="0.8"></path><path fill-rule="evenodd" clip-rule="evenodd" d="M21.4482 8.55626C24.8309 7.57256 28.4237 7.57256 31.8063 8.55626L26.6302 20.0297L21.4482 8.55626Z" fill="black" fill-opacity="0.8"></path><path fill-rule="evenodd" clip-rule="evenodd" d="M36.5193 10.694C38.4573 11.9319 40.1481 13.5197 41.5053 15.3762L33.0099 34.1802L29.731 26.8902H23.5247L20.2459 34.1722L11.7623 15.3593C13.1186 13.5097 14.8066 11.9281 16.7404 10.695L23.5247 25.7451H29.7597L36.5193 10.694ZM8.82989 21.4716C7.73565 25.5759 8.09077 29.932 9.83535 33.8048C11.5799 37.6776 14.6071 40.83 18.4061 42.7301L8.82989 21.4716Z" fill="black" fill-opacity="0.8"></path><path fill-rule="evenodd" clip-rule="evenodd" d="M21.5342 43.9485C24.8632 44.8992 28.3919 44.8992 31.721 43.9485L26.6311 32.6453L21.5342 43.9485ZM34.8534 42.7302C38.6456 40.8333 41.6691 37.6884 43.4152 33.8244C45.1614 29.9605 45.5238 25.6131 44.4414 21.5133L34.8534 42.7302Z" fill="black" fill-opacity="0.8"></path></svg>