<svg width="116" height="28" viewBox="0 0 116 28" fill="none" xmlns="http://www.w3.org/2000/svg">
<g clip-path="url(#clip0_2882_7)">
<path d="M13.9879 0C6.25594 0.00669296 -0.0066876 6.2801 5.35965e-06 14.0121C0.00669832 21.7441 6.2801 28.0067 14.0121 28C21.7394 27.9933 28 21.7273 28 14C27.9867 6.26881 21.7191 0.00663624 13.9879 0ZM19.7356 12.6085L19.7235 12.6205L14.2784 22.4701C14.1788 22.6581 13.9828 22.7747 13.7701 22.7726H13.6007C13.3453 22.6908 13.1765 22.4477 13.1893 22.1797L13.4677 16.3111H8.74856C8.54658 16.3089 8.35963 16.204 8.25243 16.0328C8.14613 15.8538 8.14613 15.631 8.25243 15.4519L13.6975 5.52975C13.8285 5.28721 14.1092 5.16691 14.3752 5.23934C14.6281 5.32459 14.7952 5.56548 14.7866 5.83223L14.5203 11.7009H19.2394C19.4485 11.7006 19.6401 11.8174 19.7356 12.0034C19.8613 12.1856 19.8613 12.4264 19.7356 12.6085Z" fill="url(#paint0_linear_2882_7)"/>
</g>
<path d="M37 17.5898H39.46C39.4867 17.8298 39.5533 18.0364 39.66 18.2098C39.7667 18.3831 39.9 18.5231 40.06 18.6298C40.22 18.7364 40.3933 18.8231 40.58 18.8898C40.78 18.9431 40.9867 18.9698 41.2 18.9698C41.3867 18.9698 41.5667 18.9498 41.74 18.9098C41.9133 18.8698 42.06 18.8098 42.18 18.7298C42.3133 18.6498 42.42 18.5498 42.5 18.4298C42.58 18.3098 42.62 18.1698 42.62 18.0098C42.62 17.8364 42.5667 17.6898 42.46 17.5698C42.3667 17.4498 42.2267 17.3498 42.04 17.2698C41.8667 17.1898 41.6533 17.1231 41.4 17.0698C41.1467 17.0164 40.8667 16.9631 40.56 16.9098C40.1867 16.8431 39.7933 16.7631 39.38 16.6698C38.98 16.5631 38.6133 16.4098 38.28 16.2098C37.96 16.0098 37.6933 15.7498 37.48 15.4298C37.28 15.1098 37.18 14.6964 37.18 14.1898C37.18 13.6698 37.2933 13.2231 37.52 12.8498C37.7467 12.4631 38.04 12.1498 38.4 11.9098C38.7733 11.6698 39.1867 11.4964 39.64 11.3898C40.1067 11.2698 40.58 11.2098 41.06 11.2098C41.54 11.2098 42.0067 11.2764 42.46 11.4098C42.9267 11.5431 43.34 11.7431 43.7 12.0098C44.06 12.2631 44.3533 12.5898 44.58 12.9898C44.8067 13.3764 44.9333 13.8431 44.96 14.3898H42.52C42.5067 14.1898 42.4467 14.0164 42.34 13.8698C42.2467 13.7231 42.1267 13.6031 41.98 13.5098C41.8333 13.4031 41.6667 13.3231 41.48 13.2698C41.3067 13.2164 41.12 13.1898 40.92 13.1898C40.76 13.1898 40.6 13.2098 40.44 13.2498C40.28 13.2764 40.1333 13.3298 40 13.4098C39.88 13.4764 39.78 13.5631 39.7 13.6698C39.6333 13.7764 39.6 13.9031 39.6 14.0498C39.6 14.1831 39.6333 14.2964 39.7 14.3898C39.78 14.4698 39.8933 14.5498 40.04 14.6298C40.1867 14.6964 40.3733 14.7631 40.6 14.8298C40.8267 14.8831 41.0867 14.9431 41.38 15.0098C41.7933 15.0898 42.22 15.1831 42.66 15.2898C43.1133 15.3831 43.52 15.5298 43.88 15.7298C44.2533 15.9298 44.5533 16.1964 44.78 16.5298C45.02 16.8631 45.14 17.3031 45.14 17.8498C45.14 18.3964 45.02 18.8698 44.78 19.2698C44.54 19.6564 44.2267 19.9831 43.84 20.2498C43.4533 20.5031 43.0133 20.6898 42.52 20.8098C42.04 20.9298 41.5467 20.9898 41.04 20.9898C40.52 20.9898 40.02 20.9164 39.54 20.7698C39.06 20.6364 38.6333 20.4298 38.26 20.1498C37.8867 19.8698 37.5867 19.5164 37.36 19.0898C37.1333 18.6631 37.0133 18.1631 37 17.5898Z" fill="black"/>
<path d="M45.9959 13.5698V11.3898H47.6759V8.82977L50.2759 8.34977V11.3898H53.0559V13.5698H50.2959V17.0898C50.2959 17.6764 50.4693 18.0831 50.8159 18.3098C51.1626 18.5231 51.6026 18.6298 52.1359 18.6298C52.2426 18.6298 52.3626 18.6231 52.4959 18.6098C52.6293 18.5964 52.7493 18.5764 52.8559 18.5498V20.8498C52.6693 20.9031 52.4559 20.9364 52.2159 20.9498C51.9759 20.9764 51.7493 20.9898 51.5359 20.9898C50.9626 20.9898 50.4359 20.9164 49.9559 20.7698C49.4759 20.6231 49.0626 20.4031 48.7159 20.1098C48.3826 19.8031 48.1226 19.4164 47.9359 18.9498C47.7493 18.4698 47.6559 17.9098 47.6559 17.2698V13.5698H45.9959Z" fill="black"/>
<path d="M61.9884 20.7698L61.7884 19.6898C61.4551 20.0764 61.0418 20.3898 60.5484 20.6298C60.0551 20.8564 59.4418 20.9698 58.7084 20.9698C58.0551 20.9698 57.4484 20.8498 56.8884 20.6098C56.3418 20.3564 55.8618 20.0164 55.4484 19.5898C55.0484 19.1498 54.7351 18.6298 54.5084 18.0298C54.2818 17.4164 54.1684 16.7564 54.1684 16.0498C54.1684 15.3431 54.2818 14.6964 54.5084 14.1098C54.7351 13.5098 55.0484 12.9964 55.4484 12.5698C55.8618 12.1298 56.3418 11.7898 56.8884 11.5498C57.4484 11.3098 58.0551 11.1898 58.7084 11.1898C59.4418 11.1898 60.0551 11.3098 60.5484 11.5498C61.0418 11.7764 61.4551 12.0831 61.7884 12.4698L61.9684 11.3898H64.3084V20.7698H61.9884ZM59.2284 18.6698C59.6018 18.6698 59.9418 18.6031 60.2484 18.4698C60.5551 18.3364 60.8151 18.1564 61.0284 17.9298C61.2551 17.6898 61.4284 17.4098 61.5484 17.0898C61.6818 16.7698 61.7484 16.4231 61.7484 16.0498C61.7484 15.6898 61.6818 15.3564 61.5484 15.0498C61.4284 14.7298 61.2551 14.4564 61.0284 14.2298C60.8151 14.0031 60.5551 13.8231 60.2484 13.6898C59.9418 13.5564 59.6018 13.4898 59.2284 13.4898C58.8551 13.4898 58.5151 13.5564 58.2084 13.6898C57.9151 13.8231 57.6551 14.0031 57.4284 14.2298C57.2151 14.4564 57.0484 14.7298 56.9284 15.0498C56.8084 15.3564 56.7484 15.6898 56.7484 16.0498C56.7484 16.4231 56.8084 16.7698 56.9284 17.0898C57.0484 17.4098 57.2151 17.6898 57.4284 17.9298C57.6551 18.1564 57.9151 18.3364 58.2084 18.4698C58.5151 18.6031 58.8551 18.6698 59.2284 18.6698Z" fill="black"/>
<path d="M69.5202 20.7698H66.8602V11.3898H69.2202L69.4202 13.0298C69.6468 12.4431 70.0068 11.9898 70.5002 11.6698C71.0068 11.3498 71.6202 11.1898 72.3402 11.1898C72.4735 11.1898 72.5935 11.1964 72.7002 11.2098C72.8202 11.2231 72.9068 11.2431 72.9602 11.2698V13.6898C72.9202 13.6764 72.8402 13.6631 72.7202 13.6498C72.6135 13.6231 72.5068 13.6098 72.4002 13.6098C71.9468 13.6098 71.5402 13.6831 71.1802 13.8298C70.8335 13.9764 70.5335 14.1831 70.2802 14.4498C70.0402 14.7164 69.8535 15.0364 69.7202 15.4098C69.5868 15.7831 69.5202 16.2031 69.5202 16.6698V20.7698Z" fill="black"/>
<path d="M73.6522 13.5698V11.3898H75.3322V8.82977L77.9322 8.34977V11.3898H80.7122V13.5698H77.9522V17.0898C77.9522 17.6764 78.1255 18.0831 78.4722 18.3098C78.8189 18.5231 79.2589 18.6298 79.7922 18.6298C79.8989 18.6298 80.0189 18.6231 80.1522 18.6098C80.2855 18.5964 80.4055 18.5764 80.5122 18.5498V20.8498C80.3255 20.9031 80.1122 20.9364 79.8722 20.9498C79.6322 20.9764 79.4055 20.9898 79.1922 20.9898C78.6189 20.9898 78.0922 20.9164 77.6122 20.7698C77.1322 20.6231 76.7189 20.4031 76.3722 20.1098C76.0389 19.8031 75.7789 19.4164 75.5922 18.9498C75.4055 18.4698 75.3122 17.9098 75.3122 17.2698V13.5698H73.6522Z" fill="black"/>
<path d="M82.4656 20.7698V7.00977H85.1256V12.3498C85.2323 12.2298 85.3656 12.1031 85.5256 11.9698C85.699 11.8231 85.899 11.6964 86.1256 11.5898C86.3523 11.4698 86.6123 11.3764 86.9056 11.3098C87.2123 11.2298 87.5523 11.1898 87.9256 11.1898C88.5123 11.1898 89.0256 11.2831 89.4656 11.4698C89.919 11.6431 90.3056 11.8898 90.6256 12.2098C90.9456 12.5298 91.1856 12.9164 91.3456 13.3698C91.519 13.8098 91.6056 14.2964 91.6056 14.8298V20.7698H88.9456V15.5298C88.9456 14.9298 88.7856 14.4631 88.4656 14.1298C88.1456 13.7831 87.699 13.6098 87.1256 13.6098C86.8456 13.6098 86.579 13.6564 86.3256 13.7498C86.0856 13.8298 85.8723 13.9564 85.6856 14.1298C85.5123 14.2898 85.3723 14.4898 85.2656 14.7298C85.1723 14.9698 85.1256 15.2364 85.1256 15.5298V20.7698H82.4656Z" fill="black" fill-opacity="0.6"/>
<path d="M100.248 16.6698V11.3898H102.888V16.9098C102.888 17.5098 102.781 18.0631 102.568 18.5698C102.354 19.0631 102.048 19.4898 101.648 19.8498C101.261 20.2098 100.788 20.4898 100.228 20.6898C99.681 20.8764 99.0743 20.9698 98.4077 20.9698C97.7277 20.9698 97.1143 20.8764 96.5677 20.6898C96.021 20.4898 95.5477 20.2098 95.1477 19.8498C94.761 19.4898 94.4543 19.0631 94.2277 18.5698C94.0143 18.0764 93.9077 17.5298 93.9077 16.9298V11.3898H96.5677V16.6698C96.5677 17.2298 96.7343 17.6964 97.0677 18.0698C97.401 18.4431 97.8477 18.6298 98.4077 18.6298C98.9677 18.6298 99.4143 18.4431 99.7477 18.0698C100.081 17.6964 100.248 17.2298 100.248 16.6698Z" fill="black" fill-opacity="0.6"/>
<path d="M105.317 20.7698V7.00977H107.977V12.4498C108.284 12.0764 108.677 11.7764 109.157 11.5498C109.651 11.3098 110.271 11.1898 111.017 11.1898C111.671 11.1898 112.271 11.3098 112.817 11.5498C113.377 11.7898 113.857 12.1298 114.257 12.5698C114.657 12.9964 114.971 13.5098 115.197 14.1098C115.424 14.6964 115.537 15.3431 115.537 16.0498C115.537 16.7564 115.417 17.4164 115.177 18.0298C114.951 18.6298 114.631 19.1498 114.217 19.5898C113.804 20.0164 113.311 20.3564 112.737 20.6098C112.177 20.8498 111.564 20.9698 110.897 20.9698C110.124 20.9698 109.491 20.8498 108.997 20.6098C108.504 20.3564 108.111 20.0364 107.817 19.6498L107.577 20.7698H105.317ZM110.477 18.6698C110.851 18.6698 111.191 18.6031 111.497 18.4698C111.804 18.3231 112.064 18.1364 112.277 17.9098C112.504 17.6698 112.677 17.3964 112.797 17.0898C112.917 16.7698 112.977 16.4231 112.977 16.0498C112.977 15.6898 112.917 15.3564 112.797 15.0498C112.677 14.7298 112.504 14.4564 112.277 14.2298C112.064 14.0031 111.804 13.8231 111.497 13.6898C111.191 13.5564 110.851 13.4898 110.477 13.4898C110.117 13.4898 109.777 13.5564 109.457 13.6898C109.151 13.8231 108.884 14.0031 108.657 14.2298C108.444 14.4564 108.277 14.7298 108.157 15.0498C108.037 15.3564 107.977 15.6898 107.977 16.0498C107.977 16.4231 108.037 16.7698 108.157 17.0898C108.277 17.3964 108.444 17.6698 108.657 17.9098C108.884 18.1364 109.151 18.3231 109.457 18.4698C109.777 18.6031 110.117 18.6698 110.477 18.6698Z" fill="black" fill-opacity="0.6"/>
<defs>
<linearGradient id="paint0_linear_2882_7" x1="0" y1="14" x2="28" y2="14" gradientUnits="userSpaceOnUse">
<stop stop-color="#0C81F3"/>
<stop offset="0.5" stop-color="#3F7980"/>
<stop offset="1" stop-color="#EB8988"/>
</linearGradient>
<clipPath id="clip0_2882_7">
<rect width="28" height="28" fill="white"/>
</clipPath>
</defs>
</svg>
