<svg xmlns="http://www.w3.org/2000/svg" width="42" height="20" viewBox="0 0 42 20" fill="none"><g clip-path="url(#clip0_2241_27)"><path d="M-0.000976562 0.672439C5.61054 -0.928708 9.05491 0.680477 11.3288 5.90922C13.2456 10.3124 16.0164 14.3283 18.4408 18.5693C12.3867 20.3826 11.1095 19.9153 8.21641 14.9237C5.52323 10.2753 2.84846 5.61498 -0.000976562 0.672439Z" fill="white"></path><path d="M30.8453 18.8765C25.2571 20.4236 21.8845 18.9385 19.6388 13.8278C17.655 9.31259 14.8027 5.20267 12.2891 0.835545C19.3981 -0.703558 19.631 -0.596506 23.023 5.31373C25.5599 9.72989 28.1084 14.1341 30.8453 18.8765Z" fill="white"></path><path d="M33.1211 15.8044C31.1888 12.433 29.4719 9.76906 28.0851 6.93303C26.3585 3.40149 28.0327 0.572455 31.84 0.228209C32.3757 0.180174 32.9163 0.21019 33.4549 0.21019C36.0074 0.21019 38.5589 0.21019 42.0003 0.21019L33.1211 15.8044Z" fill="white"></path></g><defs><clipPath id="clip0_2241_27"><rect width="42" height="19.54" fill="white"></rect></clipPath></defs></svg>