<svg xmlns="http://www.w3.org/2000/svg" width="47" height="35" viewBox="0 0 47 35" fill="none"><g clip-path="url(#clip0_2639_216)"><path d="M17.193 17.259C17.193 18.4359 17.0696 19.0233 16.2156 19.0233C15.327 19.0233 15.1838 18.4892 15.1838 17.4209V8.02771H8.26383V19.0628C8.17172 20.7798 8.72298 22.4695 9.80995 23.8019C10.3079 24.4009 10.9348 24.8795 11.6438 25.2019C12.3528 25.5244 13.1256 25.6823 13.9043 25.6639C15.1264 25.6359 16.3177 25.2751 17.35 24.6204C16.6994 27.0857 15.2352 28.3168 13.0483 28.3168C12.2136 28.2662 11.3941 28.0708 10.6264 27.7392C9.8044 27.4514 9.01298 27.0827 8.26383 26.6384V32.3648C9.01771 32.8351 9.80811 33.2442 10.6274 33.588C11.8234 34.0557 13.0951 34.2997 14.3792 34.3078C15.7528 34.3206 17.1126 34.0341 18.3643 33.4682C19.6159 32.9023 20.7293 32.0706 21.627 31.0309C23.3561 29.029 24.2453 26.4367 24.1091 23.795V8.02771H17.193V17.259ZM32.8823 0.953678C24.6699 1.69317 25.2287 10.4752 25.2287 10.4752V25.8318C29.6933 25.8318 31.9256 23.6883 31.9256 20.7205V18.7153H35.2182V12.0352H31.9206V11.1377C31.8782 10.2721 32.1398 9.41883 32.6601 8.72574C32.8999 8.44856 33.1989 8.22887 33.5351 8.08291C33.8712 7.93696 34.2359 7.8685 34.6022 7.88258C35.1531 7.8885 36.1651 8.07116 36.3694 8.86988L36.3842 8.93307V15.8946C36.2692 18.0521 36.7974 20.1953 37.9017 22.0524C38.7207 23.271 39.8352 24.2621 41.1411 24.9333C42.4677 25.6353 43.9468 25.9995 45.4477 25.9937C45.6165 25.9937 45.9226 25.9937 46.2059 25.9759V18.8999C44.7901 18.8999 44.1829 18.6383 43.7327 18.0972C43.2058 17.2102 42.9716 16.1798 43.0633 15.1521H45.4734V8.02771H43.1956C42.7662 5.35706 41.1618 1.33182 35.2103 0.88358C35.2103 0.88358 34.5054 0.856923 33.9535 0.876669C33.523 0.892466 32.8823 0.953678 32.8823 0.953678ZM9.4871 25.2759L9.49204 25.2868C8.76013 25.7188 7.97112 26.0459 7.14818 26.2583V26.2948L7.12547 26.2622C6.72915 26.3519 6.32432 26.3986 5.91799 26.4014C5.13272 26.4204 4.35333 26.2615 3.63814 25.9366C2.92296 25.6118 2.2905 25.1294 1.7881 24.5256C0.689702 23.1795 0.133402 21.4719 0.228159 19.7371V1.3328H7.14818V19.7381C7.05251 21.4707 7.60705 23.1765 8.70318 24.5216C8.9413 24.7961 9.20366 25.0485 9.4871 25.2759Z" fill="white"></path></g><defs><clipPath id="clip0_2639_216"><rect width="45.9827" height="33.44" fill="white" transform="translate(0.228516 0.869873)"></rect></clipPath></defs></svg>