<svg xmlns="http://www.w3.org/2000/svg" width="76" height="28" viewBox="0 0 76 28" fill="none"><g clip-path="url(#clip0_2639_208)"><path opacity="0.999" fill-rule="evenodd" clip-rule="evenodd" d="M10.499 1.28607C5.62124 7.01438 0.943538 14.1191 0.894028 19.4295C0.845094 20.3817 1.01339 21.3324 1.38617 22.2099C1.75895 23.0874 2.32646 23.8686 3.04573 24.4944C4.99277 26.196 7.50259 27.1136 10.088 27.0689C13.6161 27.0689 17.1185 25.651 19.8623 24.5528C24.4816 22.7061 75.5463 0.53154 75.5463 0.53154C76.0414 0.28498 75.9423 -0.0229742 75.3304 0.135458C75.0809 0.19289 19.7385 15.1865 19.7385 15.1865C18.6902 15.4831 17.6069 15.6383 16.5174 15.6479C12.2596 15.6727 8.47996 13.3121 8.51065 8.3373C8.6303 5.86655 9.31021 3.45535 10.499 1.28607Z" fill="white"></path></g><defs><clipPath id="clip0_2639_208"><rect width="74.9661" height="26.98" fill="white" transform="translate(0.896484 0.0898438)"></rect></clipPath></defs></svg>