<svg xmlns="http://www.w3.org/2000/svg" width="87" height="25" viewBox="0 0 87 25" fill="none"><g clip-path="url(#clip0_2639_199)"><path d="M47.5206 18.5898V6.56982H44.6506L41.4606 11.6498L38.2706 6.56982H35.3906V18.5898H38.0106V10.7898L40.4706 14.4998H42.3706L44.8706 10.7398V18.5898H47.5206Z" fill="white"></path><path d="M59.4506 12.5899C59.4653 12.0988 59.3813 11.6097 59.2034 11.1516C59.0256 10.6936 58.7576 10.2759 58.4153 9.92339C58.0731 9.57087 57.6635 9.29066 57.2109 9.09938C56.7583 8.90811 56.2719 8.80966 55.7806 8.80988C55.2856 8.79982 54.7938 8.89141 54.3356 9.07898C53.8773 9.26656 53.4625 9.54614 53.1166 9.90043C52.7708 10.2547 52.5013 10.6762 52.3248 11.1388C52.1483 11.6014 52.0686 12.0953 52.0906 12.5899C52.0759 13.081 52.1599 13.5701 52.3377 14.0281C52.5156 14.4862 52.7836 14.9038 53.1258 15.2564C53.4681 15.6089 53.8777 15.8891 54.3303 16.0804C54.7828 16.2717 55.2692 16.3701 55.7606 16.3699C56.2556 16.3799 56.7474 16.2884 57.2056 16.1008C57.6638 15.9132 58.0787 15.6336 58.4245 15.2793C58.7704 14.925 59.0399 14.5036 59.2164 14.041C59.3929 13.5784 59.4726 13.0845 59.4506 12.5899ZM49.3506 12.5899C49.4162 10.9245 50.1239 9.34915 51.3254 8.19405C52.5269 7.03896 54.1289 6.3938 55.7956 6.3938C57.4623 6.3938 59.0643 7.03896 60.2657 8.19405C61.4672 9.34915 62.175 10.9245 62.2406 12.5899C62.175 14.2553 61.4672 15.8306 60.2657 16.9857C59.0643 18.1408 57.4623 18.786 55.7956 18.786C54.1289 18.786 52.5269 18.1408 51.3254 16.9857C50.1239 15.8306 49.4162 14.2553 49.3506 12.5899Z" fill="white"></path><path d="M68.6997 16.1998C69.1835 16.2301 69.6682 16.1577 70.122 15.9875C70.5759 15.8174 70.9887 15.5532 71.3333 15.2124C71.6779 14.8715 71.9466 14.4617 72.1218 14.0097C72.2969 13.5578 72.3746 13.0739 72.3497 12.5898C72.3729 12.1058 72.2941 11.6222 72.1185 11.1705C71.9428 10.7188 71.6743 10.309 71.3302 9.96774C70.986 9.62646 70.5741 9.36128 70.1209 9.18937C69.6678 9.01747 69.1836 8.94267 68.6997 8.96984H66.6297V16.2098L68.6997 16.1998ZM63.9697 6.58984H68.6997C72.5097 6.58984 75.1397 9.17984 75.1397 12.5898C75.1397 15.9698 72.5097 18.5898 68.6997 18.5898H63.9697V6.58984Z" fill="white"></path><path d="M77.2197 6.56982V18.5898H86.4497V16.2398H79.8697V13.7098H85.5797V11.3598H79.8697V8.91982H86.3597V6.56982H77.2197Z" fill="white"></path><path d="M28.4102 0.589844L14.4302 8.58984L0.450195 0.589844V24.5898L7.4402 20.5898V12.5898L14.4302 16.5898L21.4202 12.5898V20.5898L28.4102 24.5898V0.589844Z" fill="white"></path></g><defs><clipPath id="clip0_2639_199"><rect width="86" height="24" fill="white" transform="translate(0.450195 0.589844)"></rect></clipPath></defs></svg>