<svg xmlns="http://www.w3.org/2000/svg" width="80" height="36" viewBox="0 0 80 36" fill="none"><g clip-path="url(#clip0_2639_227)"><path d="M79.0607 15.3797L67.5687 16.1451L63.6551 26.3167L61.9763 16.5154L58.2365 16.7623L61.1734 31.3038L65.1117 31.0569L70.95 16.8116L69.3828 30.7853L77.37 30.2797L77.7403 27.0573L73.4939 27.3289L73.7774 24.8482L78.0238 24.5767L78.4188 21.0956L74.1605 21.379L74.4074 19.1452L78.6657 18.8608L79.0607 15.3797ZM52.7428 31.835L56.2357 31.6129L57.8286 16.787L54.3229 17.022L52.7428 31.835ZM20.0553 33.8842L35.6337 32.9332L36.6213 30.9206L41.4849 30.6125L42.0162 32.5382L49.1758 32.0809L50.3727 20.7371L53.3729 20.5396L53.7432 17.0832L44.485 17.6886L44.1266 21.1321L46.8788 20.9593L45.7807 31.5259L41.8177 17.8732L38.8798 18.0708L32.0905 32.5382L32.3492 29.9706L27.8687 30.254L28.1038 27.797L32.5971 27.5136L32.9309 24.0691L28.4376 24.3535L28.6469 22.1434L33.1402 21.8471L33.474 18.4036L25.475 18.922L25.154 22.2056C24.6849 19.7367 22.3889 19.1195 19.9082 19.2795L15.1068 19.5876L14.7612 23.3896C14.2332 22.1912 13.3303 21.1966 12.1884 20.5554C11.0464 19.9143 9.72718 19.6613 8.42907 19.8345C6.30936 19.976 4.3086 20.865 2.7829 22.3434C1.25719 23.8217 0.305512 25.7934 0.0972255 27.9076C-0.0443886 28.8644 0.0360842 29.841 0.332413 30.7617C0.628741 31.6824 1.13297 32.5226 1.80608 33.2172C2.47919 33.9118 3.30311 34.4421 4.21407 34.7672C5.12503 35.0923 6.09858 35.2034 7.05936 35.0919C8.49429 34.958 9.87757 34.4883 11.0973 33.7208C12.3171 32.9532 13.3391 31.9094 14.0807 30.6737L13.7479 34.2664L17.229 34.056L17.6616 29.4393L20.0553 33.8842ZM14.5874 25.2186L14.2536 28.8971L10.9206 29.1065C10.5462 29.7442 10.0292 30.2866 9.41026 30.6913C8.79127 31.096 8.08703 31.3519 7.35266 31.439C4.711 31.599 3.63754 29.5627 3.81036 27.5877C3.93932 26.5152 4.43492 25.5202 5.21325 24.7712C5.99159 24.0222 7.00484 23.5652 8.08146 23.4775C8.76234 23.3956 9.4511 23.5429 10.0389 23.8961C10.6268 24.2493 11.0802 24.7883 11.3275 25.4279L14.5874 25.2186ZM21.512 24.2676C21.352 25.9957 19.7097 26.1439 17.9568 26.2545L18.2906 22.7369C20.5738 22.5887 21.6601 22.6756 21.512 24.2676ZM24.1171 33.0073L21.3885 28.8843C22.1684 28.6232 22.8813 28.1937 23.4765 27.6262C24.0718 27.0587 24.535 26.3672 24.8331 25.6007L24.1171 33.0073ZM40.8302 27.4524L37.9041 27.638L39.8555 22.7862L40.8302 27.4524ZM19.8332 18.2436L26.8447 17.7863L27.6219 9.61448L32.2633 17.4279L35.3493 17.2304L35.8431 12.2561C37.0528 15.8231 39.4476 17.3044 42.6818 17.0951C47.6076 16.7741 49.2124 13.5528 50.0389 12.4043L49.6321 16.2932L53.1378 16.0591L53.6316 11.3318L56.0017 15.8745L60.495 15.5782L57.3842 10.7887C58.6289 10.3514 59.6927 9.51238 60.4079 8.40382C61.1231 7.29525 61.4491 5.98019 61.3344 4.66593L63.2848 9.97295L62.6923 15.4409L66.198 15.2059L66.7905 9.73792L72.1726 0.0600586L68.3459 0.331629L65.5067 5.97343L63.9138 0.640728L59.939 0.912302L60.4822 2.38176C59.4334 1.2214 57.5689 1.07327 56.0017 1.18388L51.1509 1.51766L50.7431 5.46781C50.1812 4.2272 49.2405 3.19671 48.056 2.52454C46.8715 1.85237 45.5044 1.57315 44.1512 1.72702C39.1267 2.07266 37.2138 5.92405 36.3003 7.59003L36.7941 2.50421L33.2765 2.73826L32.4736 10.9605L27.8075 3.10957L24.4746 3.33177L23.253 16.2557L19.4628 3.66457L16.5121 3.86207L9.47586 18.9102L13.4142 18.6514L14.4135 16.4048L19.3019 16.0838L19.8332 18.2436ZM53.9772 8.10947L54.3357 4.55434C55.2834 4.39321 56.2566 4.47823 57.1621 4.80122C57.5077 4.99873 57.6558 5.43028 57.5818 6.08502C57.5688 6.39401 57.4754 6.69427 57.3109 6.95614C57.1464 7.218 56.9163 7.43241 56.6436 7.57818C55.796 7.92107 54.8915 8.1013 53.9772 8.10947ZM40.5092 12.3924C40.1482 12.0148 39.88 11.5584 39.7258 11.0594C39.5715 10.5603 39.5355 10.0321 39.6204 9.51671C39.6653 8.9323 39.8299 8.36335 40.1039 7.84521C40.3779 7.32707 40.7556 6.87079 41.2133 6.50472C41.9702 5.83967 42.9241 5.44079 43.9291 5.36906C44.4485 5.35093 44.9648 5.45689 45.4351 5.67816C45.9377 5.94399 46.3993 6.28092 46.8057 6.67853L50.6571 6.41881L50.509 7.90011L42.7193 8.43042L42.4231 11.3802L46.6448 11.0968C46.1622 11.8163 45.5253 12.4192 44.7803 12.8615C44.2774 13.1496 43.7168 13.3226 43.139 13.3681C42.655 13.4205 42.1655 13.3596 41.7091 13.1903C41.2527 13.021 40.8419 12.7478 40.5092 12.3924ZM15.6608 13.4046L17.5737 8.56571L18.5977 13.2071L15.6608 13.4046Z" fill="white"></path></g><defs><clipPath id="clip0_2639_227"><rect width="79" height="35.0477" fill="white" transform="translate(0.0605469 0.0610352)"></rect></clipPath></defs></svg>