<svg xmlns="http://www.w3.org/2000/svg" width="84" height="37" viewBox="0 0 84 37" fill="none"><g clip-path="url(#clip0_2639_212)"><path d="M71.3134 23.7679C41.1178 21.495 16.1634 28.5913 10.5512 31.2352C7.44372 32.6278 7.21195 34.3895 7.67549 35.3633C8.09327 36.1054 9.57739 36.5689 11.2008 35.7343C23.1672 29.3801 47.4263 24.324 71.3134 25.7623C71.5779 25.7623 71.8315 25.6572 72.0185 25.4702C72.2056 25.2832 72.3106 25.0296 72.3106 24.7651C72.3106 24.5006 72.2056 24.247 72.0185 24.06C71.8315 23.873 71.5779 23.7679 71.3134 23.7679ZM78.7807 14.8622C77.5284 16.2548 75.6732 17.3202 75.0704 16.8099C74.5134 16.2996 75.0704 14.6295 75.0704 14.6295C78.0387 12.7276 83.7901 7.90418 83.7901 4.1929C83.7901 0.760132 80.6826 -0.306203 77.3891 2.8938C74.7307 5.72672 72.8042 9.16591 71.777 12.9126C70.0611 14.5827 67.3704 16.7164 64.9134 16.7164C63.6611 16.7164 63.29 15.835 63.4751 14.6275C65.564 14.5807 71.3134 13.0041 71.3134 8.22647C71.292 7.43493 70.9584 6.68399 70.3853 6.13757C70.0912 5.87258 69.7462 5.67016 69.3713 5.5426C68.9965 5.41503 68.5997 5.36499 68.2049 5.39551C65.6077 5.39551 62.2675 8.03946 60.6451 11.7498C60.1977 11.6598 59.7619 11.5196 59.346 11.332C59.7749 10.4234 60.1166 9.47614 60.3666 8.503C60.7376 6.55535 59.903 5.34876 58.2777 5.48802C57.2571 5.58053 56.0047 6.46184 55.773 8.503C55.6777 9.5401 55.8704 10.5834 56.33 11.518C55.6337 13.6984 52.7122 16.4349 51.7384 16.3414C50.7646 16.2479 51.8777 12.3525 52.8515 9.47782C53.4047 8.92663 53.8319 8.26218 54.1038 7.53017C54.2413 7.25764 54.2698 6.94304 54.1837 6.65023C54.0976 6.35741 53.9033 6.10833 53.6403 5.95354C52.9245 5.68614 52.1338 5.70015 51.4279 5.99274C50.722 6.28534 50.1533 6.83475 49.8365 7.53017C49.431 8.22458 49.0894 8.95439 48.8159 9.71058C48.0271 10.6844 46.727 11.891 46.358 11.7995C45.801 11.4285 47.6103 9.06302 47.3786 7.76392C47.2956 7.23584 47.0142 6.75935 46.5917 6.43176C46.1693 6.10417 45.6378 5.9502 45.1056 6.00129C43.4823 6.23306 41.3019 9.29479 41.3019 9.29479C41.5479 8.73521 41.7043 8.14039 41.7654 7.53216C41.6729 6.37232 39.4925 5.86203 38.4261 7.94994C37.674 9.96068 37.1301 12.0432 36.8028 14.1649C36.3392 15.1387 34.5298 17.9687 33.0925 18.0612C31.9326 18.1537 33.371 13.0518 33.556 12.7733C34.2055 11.7995 34.9944 9.75833 34.8083 8.87701C34.8075 8.66583 34.7615 8.45728 34.6735 8.26531C34.5855 8.07334 34.4575 7.90239 34.2981 7.76392C34.1282 7.63574 33.9312 7.5482 33.7222 7.50802C33.5132 7.46784 33.2978 7.4761 33.0925 7.53216C32.7329 7.62012 32.3952 7.78076 32.1001 8.00418C31.805 8.2276 31.5588 8.50907 31.3766 8.83126C31.1181 8.51526 30.779 8.27509 30.3951 8.13622C30.0113 7.99734 29.597 7.96494 29.1962 8.04244C24.4215 8.55273 21.3578 16.7621 21.6821 20.6127C21.9606 22.7016 22.9344 23.9519 24.7896 23.7202C26.8785 23.4416 28.5934 20.4734 28.5934 20.4734C28.5934 20.4734 29.0569 22.9313 31.2791 22.6538C32.9557 22.1423 34.431 21.1207 35.4997 19.7313C35.4469 19.8648 35.4157 20.0058 35.4072 20.1491C35.0361 22.238 38.5147 22.0043 38.8399 20.4277C39.8605 12.5893 42.5502 9.34254 43.339 9.34254C43.9886 9.34254 41.6231 13.0528 42.968 14.4444C43.9886 15.6968 45.8437 14.723 47.3746 13.4239C47.1038 14.4075 46.9483 15.4193 46.9111 16.4388C46.8185 18.6193 47.6074 20.3819 49.7868 20.3351C52.6625 20.2426 55.7242 16.7174 57.7186 13.3781C58.2477 13.7043 58.8277 13.9397 59.4345 14.0744C59.2406 14.8629 59.1625 15.6755 59.2027 16.4866C59.3888 19.038 61.1972 20.0119 63.2811 19.9194C65.739 19.8268 68.6148 17.9717 70.5634 16.3016C70.5539 16.4002 70.5223 16.4954 70.4709 16.5801C70.2859 17.8324 70.5634 20.1054 72.3728 20.1979C74.4617 20.3839 78.0317 18.2502 79.8401 16.0698C81.3789 15.094 79.8918 13.7024 78.7807 14.8622ZM80.7284 4.24064C80.832 4.2495 80.9282 4.29778 80.9973 4.37552C81.0663 4.45325 81.1029 4.55452 81.0994 4.65842C81.0994 6.83884 75.4872 11.522 75.4872 11.522C75.4872 11.522 79.1528 4.24064 80.7294 4.24064H80.7284ZM67.2311 8.83225C67.3243 8.82749 67.4175 8.84149 67.5051 8.87345C67.5928 8.9054 67.6731 8.95465 67.7414 9.01826C67.8078 9.08328 67.8558 9.16482 67.8803 9.25451C67.9047 9.3442 67.9049 9.43879 67.8807 9.52855C67.8807 10.7809 66.1648 11.709 64.2629 11.709C65.2844 10.2706 66.4423 8.83225 67.2311 8.83225ZM29.8935 12.265C29.7074 13.5641 27.3888 19.5006 26.0897 19.5006C24.4663 19.5931 26.8785 11.1519 29.5224 11.1977C30.0327 11.1977 30.0327 11.5687 29.8935 12.265ZM9.57738 13.8416C11.1082 13.8416 8.32504 21.68 8.69607 25.1128C9.0671 28.5455 12.9166 27.5707 12.6391 25.5305C12.1756 22.1913 14.541 11.523 16.8597 11.523C18.5756 11.523 14.9578 18.851 15.6999 23.3969C16.1634 26.4119 20.2915 25.4858 19.8279 23.5829C18.5756 17.5997 22.7962 11.8015 22.2401 7.5809C21.9616 5.81826 20.9878 4.84444 19.7822 4.84444C15.8859 4.84444 12.7316 12.5903 12.7316 12.5903C12.7316 12.5903 13.1027 8.18369 9.94642 7.99868C5.40057 7.76691 0.716457 19.04 0.808965 29.2418C0.901474 32.4886 5.02954 31.9783 4.75202 29.3343C4.52224 24.7835 7.21195 13.8416 9.57738 13.8416Z" fill="white"></path></g><defs><clipPath id="clip0_2639_212"><rect width="82.9812" height="35.2" fill="white" transform="translate(0.80957 0.97998)"></rect></clipPath></defs></svg>