<svg width="130" height="35" viewBox="0 0 130 35" fill="none" xmlns="http://www.w3.org/2000/svg">
<g clip-path="url(#clip0_308_5526)">
<mask id="mask0_308_5526" style="mask-type:luminance" maskUnits="userSpaceOnUse" x="0" y="0" width="130" height="35">
<path d="M130 0H0V35H130V0Z" fill="white"/>
</mask>
<g mask="url(#mask0_308_5526)">
<path d="M17.221 0.279785C14.9596 0.279653 12.7202 0.724965 10.6309 1.5903C8.54154 2.45562 6.64311 3.72402 5.04397 5.32306C3.44484 6.92209 2.17634 8.82046 1.31089 10.9098C0.445442 12.9991 -3.8132e-09 15.2384 0 17.4998C0 22.0668 1.81424 26.4468 5.04362 29.6762C8.273 32.9056 12.653 34.7198 17.22 34.7198C19.4814 34.7198 21.7206 34.2744 23.8098 33.409C25.899 32.5436 27.7974 31.2752 29.3964 29.6762C30.9954 28.0772 32.2638 26.1788 33.1292 24.0896C33.9946 22.0004 34.44 19.7612 34.44 17.4998C34.44 12.9329 32.6259 8.55311 29.3967 5.32376C26.1676 2.09442 21.7879 0.28005 17.221 0.279785Z" fill="url(#paint0_linear_308_5526)"/>
<path d="M14.7285 22.4537L15.1065 22.3767C15.213 22.3561 15.309 22.2991 15.378 22.2154C15.447 22.1318 15.4848 22.0267 15.4848 21.9182C15.4848 21.8097 15.447 21.7047 15.378 21.621C15.309 21.5373 15.213 21.4803 15.1065 21.4597L14.7285 21.3827C14.262 21.288 13.8338 21.058 13.4973 20.7213C13.1608 20.3846 12.9309 19.9562 12.8365 19.4897L12.7595 19.1117C12.7389 19.0052 12.6819 18.9092 12.5982 18.8402C12.5145 18.7712 12.4095 18.7334 12.301 18.7334C12.1925 18.7334 12.0874 18.7712 12.0038 18.8402C11.9201 18.9092 11.8631 19.0052 11.8425 19.1117L11.7655 19.4897C11.671 19.9561 11.4411 20.3843 11.1046 20.7208C10.7681 21.0573 10.3399 21.2872 9.87349 21.3817L9.49549 21.4587C9.389 21.4793 9.293 21.5363 9.22397 21.62C9.15494 21.7037 9.11719 21.8087 9.11719 21.9172C9.11719 22.0257 9.15494 22.1308 9.22397 22.2144C9.293 22.2981 9.389 22.3551 9.49549 22.3757L9.87349 22.4527C10.3398 22.5471 10.7679 22.7769 11.1044 23.1132C11.4409 23.4495 11.6708 23.8775 11.7655 24.3437L11.8425 24.7217C11.8631 24.8282 11.9201 24.9242 12.0038 24.9932C12.0874 25.0623 12.1925 25.1 12.301 25.1C12.4095 25.1 12.5145 25.0623 12.5982 24.9932C12.6819 24.9242 12.7389 24.8282 12.7595 24.7217L12.8365 24.3437C12.9313 23.8775 13.1613 23.4496 13.4978 23.1133C13.8342 22.777 14.2623 22.5483 14.7285 22.4537Z" fill="black"/>
<path d="M23.8923 15.6058L25.2843 15.3238C25.4231 15.2954 25.5479 15.2199 25.6375 15.1101C25.727 15.0003 25.776 14.863 25.776 14.7213C25.776 14.5796 25.727 14.4423 25.6375 14.3325C25.5479 14.2227 25.4231 14.1472 25.2843 14.1188L23.8923 13.8388C23.2219 13.7028 22.6064 13.3722 22.1226 12.8885C21.6389 12.4048 21.3084 11.7893 21.1723 11.1188L20.8903 9.72679C20.8606 9.58979 20.7848 9.4671 20.6756 9.37912C20.5665 9.29114 20.4305 9.24316 20.2903 9.24316C20.1501 9.24316 20.0142 9.29114 19.905 9.37912C19.7958 9.4671 19.7201 9.58979 19.6903 9.72679L19.4083 11.1188C19.2724 11.7893 18.9419 12.4049 18.4582 12.8886C17.9744 13.3724 17.3588 13.7029 16.6883 13.8388L15.2963 14.1208C15.1575 14.1492 15.0328 14.2247 14.9432 14.3345C14.8536 14.4443 14.8047 14.5816 14.8047 14.7233C14.8047 14.865 14.8536 15.0023 14.9432 15.1121C15.0328 15.2219 15.1575 15.2974 15.2963 15.3258L16.6883 15.6078C17.3589 15.7436 17.9745 16.0741 18.4583 16.5578C18.9421 17.0416 19.2725 17.6573 19.4083 18.3278L19.6903 19.7198C19.7201 19.8568 19.7958 19.9795 19.905 20.0675C20.0142 20.1555 20.1501 20.2034 20.2903 20.2034C20.4305 20.2034 20.5665 20.1555 20.6756 20.0675C20.7848 19.9795 20.8606 19.8568 20.8903 19.7198L21.1723 18.3278C21.3084 17.6574 21.6389 17.0419 22.1226 16.5581C22.6064 16.0744 23.2219 15.7439 23.8923 15.6078V15.6058Z" fill="black"/>
<path d="M46.7461 24.1562C44.0996 24.1562 42.5078 22.0957 42.5078 18.6582C42.5078 15.2598 44.1289 13.209 46.7852 13.209C48.3281 13.209 49.5 14.0488 49.9688 15.2402H50.0371V11.4805C50.0371 10.2695 50.75 9.68359 51.7656 9.68359C52.7812 9.68359 53.4941 10.2695 53.4941 11.4805V22.4473C53.4941 23.6484 52.7812 24.2246 51.7656 24.2246C50.7598 24.2246 50.0371 23.6484 50.0371 22.4473V22.1445H49.9688C49.5586 23.2969 48.3574 24.1562 46.7461 24.1562ZM48.0449 21.4512C49.2949 21.4512 50.0469 20.416 50.0469 18.6875C50.0469 16.9785 49.2852 15.9141 48.0449 15.9141C46.8047 15.9141 46.0527 16.9785 46.0527 18.6875C46.0527 20.4062 46.7949 21.4512 48.0449 21.4512ZM60.3008 24.2539C56.8926 24.2539 54.8711 22.1934 54.8711 18.7363C54.8711 15.2891 56.9219 13.1113 60.1641 13.1113C63.3281 13.1113 65.4082 15.2012 65.4082 18.0723C65.4082 18.9512 64.9102 19.4395 64.0117 19.4395H58.2305V19.6348C58.2305 20.9238 59.0801 21.8027 60.3301 21.8027C61.2773 21.8027 61.9316 21.5 62.7031 20.7188C63.0645 20.377 63.3477 20.2598 63.7773 20.2598C64.4805 20.2598 65.0762 20.709 65.0762 21.4707C65.0762 21.7344 64.998 21.998 64.8418 22.252C64.1387 23.502 62.4199 24.2539 60.3008 24.2539ZM58.2793 17.4668H62.1465C62.0879 16.3145 61.3164 15.5723 60.2324 15.5723C59.1582 15.5723 58.3672 16.3535 58.2793 17.4668ZM71.8633 24.2539C68.4551 24.2539 66.4336 22.1934 66.4336 18.7363C66.4336 15.2891 68.4844 13.1113 71.7266 13.1113C74.8906 13.1113 76.9707 15.2012 76.9707 18.0723C76.9707 18.9512 76.4727 19.4395 75.5742 19.4395H69.793V19.6348C69.793 20.9238 70.6426 21.8027 71.8926 21.8027C72.8398 21.8027 73.4941 21.5 74.2656 20.7188C74.627 20.377 74.9102 20.2598 75.3398 20.2598C76.043 20.2598 76.6387 20.709 76.6387 21.4707C76.6387 21.7344 76.5605 21.998 76.4043 22.252C75.7012 23.502 73.9824 24.2539 71.8633 24.2539ZM69.8418 17.4668H73.709C73.6504 16.3145 72.8789 15.5723 71.7949 15.5723C70.7207 15.5723 69.9297 16.3535 69.8418 17.4668ZM80.0566 27.8184C79.041 27.8184 78.3184 27.2324 78.3184 26.0215V14.918C78.3184 13.7168 79.0312 13.1406 80.0469 13.1406C81.0527 13.1406 81.7656 13.7168 81.7656 14.9277V15.2598H81.834C82.3711 13.9805 83.5234 13.209 85.0566 13.209C87.7422 13.209 89.3047 15.2109 89.3047 18.6875C89.3047 22.1543 87.752 24.1562 85.1055 24.1562C83.543 24.1562 82.3711 23.4141 81.8535 22.1836H81.7852V26.0215C81.7852 27.2324 81.0625 27.8184 80.0566 27.8184ZM83.7676 21.4512C84.998 21.4512 85.7695 20.377 85.7695 18.6875C85.7695 16.998 84.9883 15.9141 83.7676 15.9141C82.5566 15.9141 81.7754 17.0078 81.7656 18.6875C81.7754 20.377 82.5469 21.4512 83.7676 21.4512ZM92.459 24.2246C91.4434 24.2246 90.7207 23.6387 90.7207 22.4277V11.4805C90.7207 10.2695 91.4434 9.68359 92.459 9.68359C93.4648 9.68359 94.1875 10.2695 94.1875 11.4805V22.4277C94.1875 23.6387 93.4648 24.2246 92.459 24.2246ZM98.1035 27.916C96.6387 27.916 95.8379 27.3496 95.8379 26.3242C95.8379 25.6406 96.3164 25.2207 97.0781 25.2207C97.2441 25.2207 97.3711 25.2305 97.5371 25.2305C97.957 25.2305 98.4551 25.1133 98.7676 24.6445L98.8555 24.4395L95.6133 15.7969C95.4766 15.4453 95.3984 15.0449 95.3984 14.752C95.3984 13.8242 96.1797 13.1406 97.2051 13.1406C98.1328 13.1406 98.6016 13.5312 98.8848 14.5664L100.877 21.4023H100.936L102.928 14.5273C103.201 13.5703 103.719 13.1406 104.607 13.1406C105.604 13.1406 106.297 13.7852 106.297 14.6836C106.297 14.9766 106.209 15.4062 106.092 15.7383L103.162 23.9023C102.137 26.8027 100.721 27.916 98.1035 27.916Z" fill="black"/>
<path d="M110.471 25.2148C109.338 25.2148 108.645 24.5703 108.645 23.5059C108.645 23.2031 108.742 22.7637 108.898 22.334L112.375 12.7832C112.893 11.3477 113.762 10.6934 115.158 10.6934C116.633 10.6934 117.492 11.3184 118.029 12.7832L121.535 22.334C121.701 22.793 121.77 23.125 121.77 23.4961C121.77 24.502 121.018 25.2148 119.973 25.2148C118.938 25.2148 118.4 24.7461 118.088 23.5938L117.609 22.0312H112.785L112.307 23.5352C111.965 24.7266 111.428 25.2148 110.471 25.2148ZM113.498 19.3262H116.828L115.178 13.8965H115.1L113.498 19.3262ZM125.295 25.2148C124.162 25.2148 123.498 24.541 123.498 23.3496V12.5586C123.498 11.3672 124.162 10.6934 125.295 10.6934C126.428 10.6934 127.082 11.3672 127.082 12.5586V23.3496C127.082 24.541 126.428 25.2148 125.295 25.2148Z" fill="#666666"/>
</g>
</g>
<defs>
<linearGradient id="paint0_linear_308_5526" x1="-2.35748e-07" y1="7.30555" x2="28.8952" y2="32.7912" gradientUnits="userSpaceOnUse">
<stop stop-opacity="0.1"/>
<stop offset="0.502" stop-opacity="0.2"/>
<stop offset="1" stop-opacity="0.5"/>
</linearGradient>
<clipPath id="clip0_308_5526">
<rect width="130" height="35" fill="white"/>
</clipPath>
</defs>
</svg>
