<svg width="130" height="35" viewBox="0 0 130 35" fill="none" xmlns="http://www.w3.org/2000/svg">
<g clip-path="url(#clip0_77_628)">
<path d="M17.221 0.279999C14.9596 0.279867 12.7202 0.725179 10.6309 1.59051C8.54154 2.45583 6.64311 3.72423 5.04397 5.32327C3.44484 6.9223 2.17634 8.82067 1.31089 10.91C0.445442 12.9993 -3.8132e-09 15.2386 0 17.5C0 22.067 1.81424 26.447 5.04362 29.6764C8.273 32.9058 12.653 34.72 17.22 34.72C19.4814 34.72 21.7206 34.2746 23.8098 33.4092C25.899 32.5438 27.7974 31.2754 29.3964 29.6764C30.9954 28.0774 32.2638 26.179 33.1292 24.0898C33.9946 22.0006 34.44 19.7614 34.44 17.5C34.44 12.9331 32.6259 8.55332 29.3967 5.32397C26.1676 2.09463 21.7879 0.280264 17.221 0.279999Z" fill="url(#paint0_linear_77_628)"/>
<path d="M14.7285 22.454L15.1065 22.377C15.213 22.3564 15.309 22.2994 15.378 22.2157C15.447 22.1321 15.4848 22.027 15.4848 21.9185C15.4848 21.81 15.447 21.705 15.378 21.6213C15.309 21.5376 15.213 21.4806 15.1065 21.46L14.7285 21.383C14.262 21.2883 13.8338 21.0583 13.4973 20.7216C13.1608 20.3849 12.9309 19.9565 12.8365 19.49L12.7595 19.112C12.7389 19.0055 12.6819 18.9095 12.5982 18.8405C12.5145 18.7715 12.4095 18.7337 12.301 18.7337C12.1925 18.7337 12.0874 18.7715 12.0038 18.8405C11.9201 18.9095 11.8631 19.0055 11.8425 19.112L11.7655 19.49C11.671 19.9564 11.4411 20.3846 11.1046 20.7211C10.7681 21.0576 10.3399 21.2875 9.87349 21.382L9.49549 21.459C9.389 21.4796 9.293 21.5366 9.22397 21.6203C9.15494 21.704 9.11719 21.809 9.11719 21.9175C9.11719 22.026 9.15494 22.1311 9.22397 22.2147C9.293 22.2984 9.389 22.3554 9.49549 22.376L9.87349 22.453C10.3398 22.5474 10.7679 22.7772 11.1044 23.1135C11.4409 23.4498 11.6708 23.8778 11.7655 24.344L11.8425 24.722C11.8631 24.8285 11.9201 24.9245 12.0038 24.9935C12.0874 25.0626 12.1925 25.1003 12.301 25.1003C12.4095 25.1003 12.5145 25.0626 12.5982 24.9935C12.6819 24.9245 12.7389 24.8285 12.7595 24.722L12.8365 24.344C12.9313 23.8778 13.1613 23.4499 13.4978 23.1136C13.8342 22.7773 14.2623 22.5486 14.7285 22.454Z" fill="black"/>
<path d="M23.8923 15.606L25.2843 15.324C25.4231 15.2956 25.5479 15.2201 25.6375 15.1103C25.727 15.0005 25.776 14.8632 25.776 14.7215C25.776 14.5798 25.727 14.4425 25.6375 14.3327C25.5479 14.2229 25.4231 14.1474 25.2843 14.119L23.8923 13.839C23.2219 13.703 22.6064 13.3724 22.1226 12.8887C21.6389 12.405 21.3084 11.7895 21.1723 11.119L20.8903 9.72701C20.8606 9.59001 20.7848 9.46732 20.6756 9.37934C20.5665 9.29136 20.4305 9.24338 20.2903 9.24338C20.1501 9.24338 20.0142 9.29136 19.905 9.37934C19.7958 9.46732 19.7201 9.59001 19.6903 9.72701L19.4083 11.119C19.2724 11.7895 18.9419 12.4051 18.4582 12.8888C17.9744 13.3726 17.3588 13.7031 16.6883 13.839L15.2963 14.121C15.1575 14.1494 15.0328 14.2249 14.9432 14.3347C14.8536 14.4445 14.8047 14.5818 14.8047 14.7235C14.8047 14.8652 14.8536 15.0025 14.9432 15.1123C15.0328 15.2221 15.1575 15.2976 15.2963 15.326L16.6883 15.608C17.3589 15.7438 17.9745 16.0743 18.4583 16.558C18.9421 17.0418 19.2725 17.6575 19.4083 18.328L19.6903 19.72C19.7201 19.857 19.7958 19.9797 19.905 20.0677C20.0142 20.1557 20.1501 20.2036 20.2903 20.2036C20.4305 20.2036 20.5665 20.1557 20.6756 20.0677C20.7848 19.9797 20.8606 19.857 20.8903 19.72L21.1723 18.328C21.3084 17.6576 21.6389 17.0421 22.1226 16.5583C22.6064 16.0746 23.2219 15.7441 23.8923 15.608V15.606Z" fill="black"/>
<path d="M46.7461 24.1562C44.0996 24.1562 42.5078 22.0957 42.5078 18.6582C42.5078 15.2598 44.1289 13.209 46.7852 13.209C48.3281 13.209 49.5 14.0488 49.9688 15.2402H50.0371V11.4805C50.0371 10.2695 50.75 9.68359 51.7656 9.68359C52.7812 9.68359 53.4941 10.2695 53.4941 11.4805V22.4473C53.4941 23.6484 52.7812 24.2246 51.7656 24.2246C50.7598 24.2246 50.0371 23.6484 50.0371 22.4473V22.1445H49.9688C49.5586 23.2969 48.3574 24.1562 46.7461 24.1562ZM48.0449 21.4512C49.2949 21.4512 50.0469 20.416 50.0469 18.6875C50.0469 16.9785 49.2852 15.9141 48.0449 15.9141C46.8047 15.9141 46.0527 16.9785 46.0527 18.6875C46.0527 20.4062 46.7949 21.4512 48.0449 21.4512ZM60.3008 24.2539C56.8926 24.2539 54.8711 22.1934 54.8711 18.7363C54.8711 15.2891 56.9219 13.1113 60.1641 13.1113C63.3281 13.1113 65.4082 15.2012 65.4082 18.0723C65.4082 18.9512 64.9102 19.4395 64.0117 19.4395H58.2305V19.6348C58.2305 20.9238 59.0801 21.8027 60.3301 21.8027C61.2773 21.8027 61.9316 21.5 62.7031 20.7188C63.0645 20.377 63.3477 20.2598 63.7773 20.2598C64.4805 20.2598 65.0762 20.709 65.0762 21.4707C65.0762 21.7344 64.998 21.998 64.8418 22.252C64.1387 23.502 62.4199 24.2539 60.3008 24.2539ZM58.2793 17.4668H62.1465C62.0879 16.3145 61.3164 15.5723 60.2324 15.5723C59.1582 15.5723 58.3672 16.3535 58.2793 17.4668ZM71.8633 24.2539C68.4551 24.2539 66.4336 22.1934 66.4336 18.7363C66.4336 15.2891 68.4844 13.1113 71.7266 13.1113C74.8906 13.1113 76.9707 15.2012 76.9707 18.0723C76.9707 18.9512 76.4727 19.4395 75.5742 19.4395H69.793V19.6348C69.793 20.9238 70.6426 21.8027 71.8926 21.8027C72.8398 21.8027 73.4941 21.5 74.2656 20.7188C74.627 20.377 74.9102 20.2598 75.3398 20.2598C76.043 20.2598 76.6387 20.709 76.6387 21.4707C76.6387 21.7344 76.5605 21.998 76.4043 22.252C75.7012 23.502 73.9824 24.2539 71.8633 24.2539ZM69.8418 17.4668H73.709C73.6504 16.3145 72.8789 15.5723 71.7949 15.5723C70.7207 15.5723 69.9297 16.3535 69.8418 17.4668ZM80.0566 27.8184C79.041 27.8184 78.3184 27.2324 78.3184 26.0215V14.918C78.3184 13.7168 79.0312 13.1406 80.0469 13.1406C81.0527 13.1406 81.7656 13.7168 81.7656 14.9277V15.2598H81.834C82.3711 13.9805 83.5234 13.209 85.0566 13.209C87.7422 13.209 89.3047 15.2109 89.3047 18.6875C89.3047 22.1543 87.752 24.1562 85.1055 24.1562C83.543 24.1562 82.3711 23.4141 81.8535 22.1836H81.7852V26.0215C81.7852 27.2324 81.0625 27.8184 80.0566 27.8184ZM83.7676 21.4512C84.998 21.4512 85.7695 20.377 85.7695 18.6875C85.7695 16.998 84.9883 15.9141 83.7676 15.9141C82.5566 15.9141 81.7754 17.0078 81.7656 18.6875C81.7754 20.377 82.5469 21.4512 83.7676 21.4512ZM92.459 24.2246C91.4434 24.2246 90.7207 23.6387 90.7207 22.4277V11.4805C90.7207 10.2695 91.4434 9.68359 92.459 9.68359C93.4648 9.68359 94.1875 10.2695 94.1875 11.4805V22.4277C94.1875 23.6387 93.4648 24.2246 92.459 24.2246ZM98.1035 27.916C96.6387 27.916 95.8379 27.3496 95.8379 26.3242C95.8379 25.6406 96.3164 25.2207 97.0781 25.2207C97.2441 25.2207 97.3711 25.2305 97.5371 25.2305C97.957 25.2305 98.4551 25.1133 98.7676 24.6445L98.8555 24.4395L95.6133 15.7969C95.4766 15.4453 95.3984 15.0449 95.3984 14.752C95.3984 13.8242 96.1797 13.1406 97.2051 13.1406C98.1328 13.1406 98.6016 13.5312 98.8848 14.5664L100.877 21.4023H100.936L102.928 14.5273C103.201 13.5703 103.719 13.1406 104.607 13.1406C105.604 13.1406 106.297 13.7852 106.297 14.6836C106.297 14.9766 106.209 15.4062 106.092 15.7383L103.162 23.9023C102.137 26.8027 100.721 27.916 98.1035 27.916Z" fill="black"/>
<path d="M108.471 25.2148C107.338 25.2148 106.645 24.5703 106.645 23.5059C106.645 23.2031 106.742 22.7637 106.898 22.334L110.375 12.7832C110.893 11.3477 111.762 10.6934 113.158 10.6934C114.633 10.6934 115.492 11.3184 116.029 12.7832L119.535 22.334C119.701 22.793 119.77 23.125 119.77 23.4961C119.77 24.502 119.018 25.2148 117.973 25.2148C116.938 25.2148 116.4 24.7461 116.088 23.5938L115.609 22.0312H110.785L110.307 23.5352C109.965 24.7266 109.428 25.2148 108.471 25.2148ZM111.498 19.3262H114.828L113.178 13.8965H113.1L111.498 19.3262ZM123.295 25.2148C122.162 25.2148 121.498 24.541 121.498 23.3496V12.5586C121.498 11.3672 122.162 10.6934 123.295 10.6934C124.428 10.6934 125.082 11.3672 125.082 12.5586V23.3496C125.082 24.541 124.428 25.2148 123.295 25.2148Z" fill="#666666"/>
</g>
<defs>
<linearGradient id="paint0_linear_77_628" x1="-2.04623e-08" y1="7.30576" x2="28.8952" y2="32.7914" gradientUnits="userSpaceOnUse">
<stop stop-opacity="0.1"/>
<stop offset="0.502" stop-opacity="0.2"/>
<stop offset="1" stop-opacity="0.5"/>
</linearGradient>
<clipPath id="clip0_77_628">
<rect width="130" height="35" fill="white"/>
</clipPath>
</defs>
</svg>
