<svg xmlns="http://www.w3.org/2000/svg" width="56" height="56" viewBox="0 0 56 56" fill="none"><g clip-path="url(#clip0_2639_220)"><path fill-rule="evenodd" clip-rule="evenodd" d="M28.1406 0.0898438C22.7016 0.0898437 17.3848 1.70269 12.8625 4.72443C8.3401 7.74617 4.81536 12.0411 2.73395 17.066C0.65254 22.091 0.107949 27.6203 1.16904 32.9548C2.23014 38.2893 4.84926 43.1893 8.6952 47.0353C12.5411 50.8812 17.4412 53.5003 22.7757 54.5614C28.1101 55.6225 33.6395 55.0779 38.6644 52.9965C43.6894 50.9151 47.9843 47.3904 51.0061 42.868C54.0278 38.3457 55.6406 33.0288 55.6406 27.5898C55.6406 20.2964 52.7433 13.3017 47.5861 8.14441C42.4288 2.98716 35.4341 0.0898438 28.1406 0.0898438ZM28.1406 52.624C23.1893 52.624 18.3492 51.1558 14.2324 48.405C10.1156 45.6542 6.90686 41.7444 5.01209 37.17C3.11731 32.5956 2.62155 27.5621 3.5875 22.7059C4.55345 17.8498 6.93772 13.3891 10.4388 9.88802C13.9399 6.38693 18.4006 4.00265 23.2567 3.0367C28.1129 2.07076 33.1464 2.56652 37.7208 4.46129C42.2952 6.35607 46.205 9.56476 48.9558 13.6816C51.7066 17.7985 53.1748 22.6386 53.1748 27.5898C53.1748 30.8774 52.5273 34.1327 51.2692 37.17C50.0111 40.2073 48.1671 42.967 45.8425 45.2917C43.5178 47.6163 40.7581 49.4603 37.7208 50.7184C34.6835 51.9765 31.4282 52.624 28.1406 52.624Z" fill="white"></path><path fill-rule="evenodd" clip-rule="evenodd" d="M22.6592 8.88591C26.2371 7.84532 30.0374 7.84532 33.6154 8.88591L28.1402 21.0178L22.6592 8.88591Z" fill="white"></path><path fill-rule="evenodd" clip-rule="evenodd" d="M38.5993 11.1467C40.6516 12.4561 42.442 14.1362 43.8792 16.1011L34.8937 35.9856L31.4257 28.2754H24.8557L21.3888 35.9856L12.4131 16.0823C13.8477 14.1267 15.633 12.4545 17.6782 11.1507L24.8557 27.0652H31.4484L38.5993 11.1467ZM9.31405 22.5468C8.15563 26.8883 8.53073 31.4966 10.376 35.5936C12.2213 39.6907 15.4238 43.0255 19.4427 45.0352L9.31405 22.5468Z" fill="white"></path><path fill-rule="evenodd" clip-rule="evenodd" d="M22.75 46.3193C26.2712 47.325 30.0035 47.325 33.5247 46.3193L28.1403 34.3649L22.75 46.3193ZM36.8378 45.0312C40.8489 43.0249 44.0467 39.6985 45.8935 35.6115C47.7403 31.5246 48.1234 26.9263 46.9783 22.5901L36.8378 45.0312Z" fill="white"></path></g><defs><clipPath id="clip0_2639_220"><rect width="55" height="55" fill="white" transform="translate(0.640625 0.0898438)"></rect></clipPath></defs></svg>