<svg width="130" height="35" viewBox="0 0 130 35" fill="none" xmlns="http://www.w3.org/2000/svg">
<path d="M17.221 0.279999C14.9596 0.279867 12.7202 0.725179 10.6309 1.59051C8.54154 2.45583 6.64311 3.72423 5.04397 5.32327C3.44484 6.9223 2.17634 8.82067 1.31089 10.91C0.445442 12.9993 -3.8132e-09 15.2386 0 17.5C0 22.067 1.81424 26.447 5.04362 29.6764C8.273 32.9058 12.653 34.72 17.22 34.72C19.4814 34.72 21.7206 34.2746 23.8098 33.4092C25.899 32.5438 27.7974 31.2754 29.3964 29.6764C30.9954 28.0774 32.2638 26.179 33.1292 24.0898C33.9946 22.0006 34.44 19.7614 34.44 17.5C34.44 12.9331 32.6259 8.55332 29.3967 5.32397C26.1676 2.09463 21.7879 0.280264 17.221 0.279999Z" fill="url(#paint0_linear_829_10)"/>
<path d="M14.7285 22.454L15.1065 22.377C15.213 22.3564 15.309 22.2994 15.378 22.2157C15.447 22.1321 15.4848 22.027 15.4848 21.9185C15.4848 21.81 15.447 21.705 15.378 21.6213C15.309 21.5376 15.213 21.4806 15.1065 21.46L14.7285 21.383C14.262 21.2883 13.8338 21.0583 13.4973 20.7216C13.1608 20.3849 12.9309 19.9565 12.8365 19.49L12.7595 19.112C12.7389 19.0055 12.6819 18.9095 12.5982 18.8405C12.5145 18.7715 12.4095 18.7337 12.301 18.7337C12.1925 18.7337 12.0874 18.7715 12.0038 18.8405C11.9201 18.9095 11.8631 19.0055 11.8425 19.112L11.7655 19.49C11.671 19.9564 11.4411 20.3846 11.1046 20.7211C10.7681 21.0576 10.3399 21.2875 9.87349 21.382L9.49549 21.459C9.389 21.4796 9.293 21.5366 9.22397 21.6203C9.15494 21.704 9.11719 21.809 9.11719 21.9175C9.11719 22.026 9.15494 22.1311 9.22397 22.2147C9.293 22.2984 9.389 22.3554 9.49549 22.376L9.87349 22.453C10.3398 22.5474 10.7679 22.7772 11.1044 23.1135C11.4409 23.4498 11.6708 23.8778 11.7655 24.344L11.8425 24.722C11.8631 24.8285 11.9201 24.9245 12.0038 24.9935C12.0874 25.0626 12.1925 25.1003 12.301 25.1003C12.4095 25.1003 12.5145 25.0626 12.5982 24.9935C12.6819 24.9245 12.7389 24.8285 12.7595 24.722L12.8365 24.344C12.9313 23.8778 13.1613 23.4499 13.4978 23.1136C13.8342 22.7773 14.2623 22.5486 14.7285 22.454Z" fill="black"/>
<path d="M23.8923 15.606L25.2843 15.324C25.4231 15.2956 25.5479 15.2201 25.6375 15.1103C25.727 15.0005 25.776 14.8632 25.776 14.7215C25.776 14.5798 25.727 14.4425 25.6375 14.3327C25.5479 14.2229 25.4231 14.1474 25.2843 14.119L23.8923 13.839C23.2219 13.703 22.6064 13.3724 22.1226 12.8887C21.6389 12.405 21.3084 11.7895 21.1723 11.119L20.8903 9.72701C20.8606 9.59001 20.7848 9.46732 20.6756 9.37934C20.5665 9.29136 20.4305 9.24338 20.2903 9.24338C20.1501 9.24338 20.0142 9.29136 19.905 9.37934C19.7958 9.46732 19.7201 9.59001 19.6903 9.72701L19.4083 11.119C19.2724 11.7895 18.9419 12.4051 18.4582 12.8888C17.9744 13.3726 17.3588 13.7031 16.6883 13.839L15.2963 14.121C15.1575 14.1494 15.0328 14.2249 14.9432 14.3347C14.8536 14.4445 14.8047 14.5818 14.8047 14.7235C14.8047 14.8652 14.8536 15.0025 14.9432 15.1123C15.0328 15.2221 15.1575 15.2976 15.2963 15.326L16.6883 15.608C17.3589 15.7438 17.9745 16.0743 18.4583 16.558C18.9421 17.0418 19.2725 17.6575 19.4083 18.328L19.6903 19.72C19.7201 19.857 19.7958 19.9797 19.905 20.0677C20.0142 20.1557 20.1501 20.2036 20.2903 20.2036C20.4305 20.2036 20.5665 20.1557 20.6756 20.0677C20.7848 19.9797 20.8606 19.857 20.8903 19.72L21.1723 18.328C21.3084 17.6576 21.6389 17.0421 22.1226 16.5583C22.6064 16.0746 23.2219 15.7441 23.8923 15.608V15.606Z" fill="black"/>
<path d="M43.4395 21.449H46.1455C46.1748 21.713 46.2481 21.9403 46.3655 22.131C46.4828 22.3217 46.6295 22.4757 46.8055 22.593C46.9815 22.7103 47.1721 22.8057 47.3775 22.879C47.5975 22.9377 47.8248 22.967 48.0595 22.967C48.2648 22.967 48.4628 22.945 48.6535 22.901C48.8441 22.857 49.0055 22.791 49.1375 22.703C49.2841 22.615 49.4015 22.505 49.4895 22.373C49.5775 22.241 49.6215 22.087 49.6215 21.911C49.6215 21.7203 49.5628 21.559 49.4455 21.427C49.3428 21.295 49.1888 21.185 48.9835 21.097C48.7928 21.009 48.5581 20.9357 48.2795 20.877C48.0008 20.8183 47.6928 20.7597 47.3555 20.701C46.9448 20.6277 46.5121 20.5397 46.0575 20.437C45.6175 20.3197 45.2141 20.151 44.8475 19.931C44.4955 19.711 44.2021 19.425 43.9675 19.073C43.7475 18.721 43.6375 18.2663 43.6375 17.709C43.6375 17.137 43.7621 16.6457 44.0115 16.235C44.2608 15.8097 44.5835 15.465 44.9795 15.201C45.3901 14.937 45.8448 14.7463 46.3435 14.629C46.8568 14.497 47.3775 14.431 47.9055 14.431C48.4335 14.431 48.9468 14.5043 49.4455 14.651C49.9588 14.7977 50.4135 15.0177 50.8095 15.311C51.2055 15.5897 51.5281 15.949 51.7775 16.389C52.0268 16.8143 52.1661 17.3277 52.1955 17.929H49.5115C49.4968 17.709 49.4308 17.5183 49.3135 17.357C49.2108 17.1957 49.0788 17.0637 48.9175 16.961C48.7561 16.8437 48.5728 16.7557 48.3675 16.697C48.1768 16.6383 47.9715 16.609 47.7515 16.609C47.5755 16.609 47.3995 16.631 47.2235 16.675C47.0475 16.7043 46.8861 16.763 46.7395 16.851C46.6075 16.9243 46.4975 17.0197 46.4095 17.137C46.3361 17.2543 46.2995 17.3937 46.2995 17.555C46.2995 17.7017 46.3361 17.8263 46.4095 17.929C46.4975 18.017 46.6221 18.105 46.7835 18.193C46.9448 18.2663 47.1501 18.3397 47.3995 18.413C47.6488 18.4717 47.9348 18.5377 48.2575 18.611C48.7121 18.699 49.1815 18.8017 49.6655 18.919C50.1641 19.0217 50.6115 19.183 51.0075 19.403C51.4181 19.623 51.7481 19.9163 51.9975 20.283C52.2615 20.6497 52.3935 21.1337 52.3935 21.735C52.3935 22.3363 52.2615 22.857 51.9975 23.297C51.7335 23.7223 51.3888 24.0817 50.9635 24.375C50.5381 24.6537 50.0541 24.859 49.5115 24.991C48.9835 25.123 48.4408 25.189 47.8835 25.189C47.3115 25.189 46.7615 25.1083 46.2335 24.947C45.7055 24.8003 45.2361 24.573 44.8255 24.265C44.4148 23.957 44.0848 23.5683 43.8355 23.099C43.5861 22.6297 43.4541 22.0797 43.4395 21.449Z" fill="black"/>
<path d="M53.335 17.027V14.629H55.183V11.813L58.043 11.285V14.629H61.101V17.027H58.065V20.899C58.065 21.5443 58.2557 21.9917 58.637 22.241C59.0183 22.4757 59.5023 22.593 60.089 22.593C60.2063 22.593 60.3383 22.5857 60.485 22.571C60.6317 22.5563 60.7637 22.5343 60.881 22.505V25.035C60.6757 25.0937 60.441 25.1303 60.177 25.145C59.913 25.1743 59.6637 25.189 59.429 25.189C58.7983 25.189 58.219 25.1083 57.691 24.947C57.163 24.7857 56.7083 24.5437 56.327 24.221C55.9603 23.8837 55.6743 23.4583 55.469 22.945C55.2637 22.417 55.161 21.801 55.161 21.097V17.027H53.335Z" fill="black"/>
<path d="M70.9267 24.947L70.7067 23.759C70.3401 24.1843 69.8854 24.529 69.3427 24.793C68.8001 25.0423 68.1254 25.167 67.3187 25.167C66.6001 25.167 65.9327 25.035 65.3167 24.771C64.7154 24.4923 64.1874 24.1183 63.7327 23.649C63.2927 23.165 62.9481 22.593 62.6987 21.933C62.4494 21.2583 62.3247 20.5323 62.3247 19.755C62.3247 18.9777 62.4494 18.2663 62.6987 17.621C62.9481 16.961 63.2927 16.3963 63.7327 15.927C64.1874 15.443 64.7154 15.069 65.3167 14.805C65.9327 14.541 66.6001 14.409 67.3187 14.409C68.1254 14.409 68.8001 14.541 69.3427 14.805C69.8854 15.0543 70.3401 15.3917 70.7067 15.817L70.9047 14.629H73.4787V24.947H70.9267ZM67.8907 22.637C68.3014 22.637 68.6754 22.5637 69.0127 22.417C69.3501 22.2703 69.6361 22.0723 69.8707 21.823C70.1201 21.559 70.3107 21.251 70.4427 20.899C70.5894 20.547 70.6627 20.1657 70.6627 19.755C70.6627 19.359 70.5894 18.9923 70.4427 18.655C70.3107 18.303 70.1201 18.0023 69.8707 17.753C69.6361 17.5037 69.3501 17.3057 69.0127 17.159C68.6754 17.0123 68.3014 16.939 67.8907 16.939C67.4801 16.939 67.1061 17.0123 66.7687 17.159C66.4461 17.3057 66.1601 17.5037 65.9107 17.753C65.6761 18.0023 65.4927 18.303 65.3607 18.655C65.2287 18.9923 65.1627 19.359 65.1627 19.755C65.1627 20.1657 65.2287 20.547 65.3607 20.899C65.4927 21.251 65.6761 21.559 65.9107 21.823C66.1601 22.0723 66.4461 22.2703 66.7687 22.417C67.1061 22.5637 67.4801 22.637 67.8907 22.637Z" fill="black"/>
<path d="M79.2116 24.947H76.2856V14.629H78.8816L79.1016 16.433C79.351 15.7877 79.747 15.289 80.2896 14.937C80.847 14.585 81.5216 14.409 82.3136 14.409C82.4603 14.409 82.5923 14.4163 82.7096 14.431C82.8416 14.4457 82.937 14.4677 82.9956 14.497V17.159C82.9516 17.1443 82.8636 17.1297 82.7316 17.115C82.6143 17.0857 82.497 17.071 82.3796 17.071C81.881 17.071 81.4336 17.1517 81.0376 17.313C80.6563 17.4743 80.3263 17.7017 80.0476 17.995C79.7836 18.2883 79.5783 18.6403 79.4316 19.051C79.285 19.4617 79.2116 19.9237 79.2116 20.437V24.947Z" fill="black"/>
<path d="M83.7569 17.027V14.629H85.6049V11.813L88.4649 11.285V14.629H91.5229V17.027H88.4869V20.899C88.4869 21.5443 88.6775 21.9917 89.0589 22.241C89.4402 22.4757 89.9242 22.593 90.5109 22.593C90.6282 22.593 90.7602 22.5857 90.9069 22.571C91.0535 22.5563 91.1855 22.5343 91.3029 22.505V25.035C91.0975 25.0937 90.8629 25.1303 90.5989 25.145C90.3349 25.1743 90.0855 25.189 89.8509 25.189C89.2202 25.189 88.6409 25.1083 88.1129 24.947C87.5849 24.7857 87.1302 24.5437 86.7489 24.221C86.3822 23.8837 86.0962 23.4583 85.8909 22.945C85.6855 22.417 85.5829 21.801 85.5829 21.097V17.027H83.7569Z" fill="black"/>
<path d="M93.4516 24.947V9.811H96.3776V15.685C96.495 15.553 96.6416 15.4137 96.8176 15.267C97.0083 15.1057 97.2283 14.9663 97.4776 14.849C97.727 14.717 98.013 14.6143 98.3356 14.541C98.673 14.453 99.047 14.409 99.4576 14.409C100.103 14.409 100.668 14.5117 101.152 14.717C101.65 14.9077 102.076 15.179 102.428 15.531C102.78 15.883 103.044 16.3083 103.22 16.807C103.41 17.291 103.506 17.8263 103.506 18.413V24.947H100.58V19.183C100.58 18.523 100.404 18.0097 100.052 17.643C99.6996 17.2617 99.2083 17.071 98.5776 17.071C98.2696 17.071 97.9763 17.1223 97.6976 17.225C97.4336 17.313 97.199 17.4523 96.9936 17.643C96.803 17.819 96.649 18.039 96.5316 18.303C96.429 18.567 96.3776 18.8603 96.3776 19.183V24.947H93.4516Z" fill="black" fill-opacity="0.6"/>
<path d="M113.012 20.437V14.629H115.916V20.701C115.916 21.361 115.799 21.9697 115.564 22.527C115.329 23.0697 114.992 23.539 114.552 23.935C114.127 24.331 113.606 24.639 112.99 24.859C112.389 25.0643 111.721 25.167 110.988 25.167C110.24 25.167 109.565 25.0643 108.964 24.859C108.363 24.639 107.842 24.331 107.402 23.935C106.977 23.539 106.639 23.0697 106.39 22.527C106.155 21.9843 106.038 21.383 106.038 20.723V14.629H108.964V20.437C108.964 21.053 109.147 21.5663 109.514 21.977C109.881 22.3877 110.372 22.593 110.988 22.593C111.604 22.593 112.095 22.3877 112.462 21.977C112.829 21.5663 113.012 21.053 113.012 20.437Z" fill="black" fill-opacity="0.6"/>
<path d="M118.588 24.947V9.811H121.514V15.795C121.852 15.3843 122.284 15.0543 122.812 14.805C123.355 14.541 124.037 14.409 124.858 14.409C125.577 14.409 126.237 14.541 126.838 14.805C127.454 15.069 127.982 15.443 128.422 15.927C128.862 16.3963 129.207 16.961 129.456 17.621C129.706 18.2663 129.83 18.9777 129.83 19.755C129.83 20.5323 129.698 21.2583 129.434 21.933C129.185 22.593 128.833 23.165 128.378 23.649C127.924 24.1183 127.381 24.4923 126.75 24.771C126.134 25.035 125.46 25.167 124.726 25.167C123.876 25.167 123.179 25.035 122.636 24.771C122.094 24.4923 121.661 24.1403 121.338 23.715L121.074 24.947H118.588ZM124.264 22.637C124.675 22.637 125.049 22.5637 125.386 22.417C125.724 22.2557 126.01 22.0503 126.244 21.801C126.494 21.537 126.684 21.2363 126.816 20.899C126.948 20.547 127.014 20.1657 127.014 19.755C127.014 19.359 126.948 18.9923 126.816 18.655C126.684 18.303 126.494 18.0023 126.244 17.753C126.01 17.5037 125.724 17.3057 125.386 17.159C125.049 17.0123 124.675 16.939 124.264 16.939C123.868 16.939 123.494 17.0123 123.142 17.159C122.805 17.3057 122.512 17.5037 122.262 17.753C122.028 18.0023 121.844 18.303 121.712 18.655C121.58 18.9923 121.514 19.359 121.514 19.755C121.514 20.1657 121.58 20.547 121.712 20.899C121.844 21.2363 122.028 21.537 122.262 21.801C122.512 22.0503 122.805 22.2557 123.142 22.417C123.494 22.5637 123.868 22.637 124.264 22.637Z" fill="black" fill-opacity="0.6"/>
<defs>
<linearGradient id="paint0_linear_829_10" x1="2.13385e-07" y1="7.30576" x2="28.8952" y2="32.7914" gradientUnits="userSpaceOnUse">
<stop stop-opacity="0.1"/>
<stop offset="0.502" stop-opacity="0.2"/>
<stop offset="1" stop-opacity="0.5"/>
</linearGradient>
</defs>
</svg>
