<svg xmlns="http://www.w3.org/2000/svg" width="49" height="35" viewBox="0 0 49 35" fill="none"><path d="M18.0884 17.1094C18.0884 18.3376 17.9598 18.9517 17.0688 18.9517C16.1383 18.9517 15.9919 18.394 15.9919 17.2785V7.47338H8.77282V18.9883C8.67539 20.7822 9.25091 22.5479 10.3867 23.9398C10.9064 24.565 11.5606 25.0646 12.3006 25.4013C13.0406 25.738 13.8471 25.903 14.6598 25.884C15.9353 25.8549 17.1787 25.4788 18.2565 24.7962C17.5781 27.3674 16.0542 28.653 13.7678 28.653C12.8967 28.6 12.0414 28.3959 11.2402 28.0498C10.3799 27.7494 9.55177 27.3641 8.76787 26.8996V32.8846C9.55485 33.3754 10.3799 33.8024 11.2352 34.1612C12.4851 34.6501 13.8142 34.9049 15.1563 34.9128C16.59 34.9261 18.0094 34.627 19.3159 34.0363C20.6223 33.4455 21.7844 32.5774 22.7215 31.4922C24.5265 29.4025 25.4547 26.6965 25.3124 23.9388V7.47338H18.0933L18.0884 17.1094ZM34.4668 0.0891405C25.8939 0.861484 26.4774 10.0277 26.4774 10.0277V26.0581C31.1381 26.0581 33.468 23.8211 33.468 20.7179V18.6293H36.9055V11.6565H33.468V10.723C33.4244 9.82074 33.6972 8.93161 34.2394 8.20913C34.4896 7.91977 34.8018 7.69042 35.1527 7.53806C35.5037 7.38571 35.8844 7.31425 36.2667 7.32899C36.8412 7.33592 37.8984 7.52678 38.112 8.3545L38.1278 8.42076V15.6883C38.0072 17.9403 38.5579 20.1775 39.7101 22.1163C40.5661 23.387 41.7299 24.4202 43.0931 25.1196C44.478 25.8523 46.0221 26.2323 47.5888 26.2262C47.7648 26.2262 48.0832 26.2212 48.3799 26.2074V18.8232C46.9024 18.8232 46.2686 18.5502 45.7978 17.9856C45.2476 17.0596 45.003 15.9839 45.0987 14.911H47.6145V7.47338H45.2322C44.7822 4.68463 43.11 0.483718 36.8976 0.0159607C36.8976 0.0159607 36.1618 -0.011729 35.5853 0.00804936C35.1363 0.023872 34.4668 0.0891405 34.4668 0.0891405ZM10.0446 25.4786L10.0495 25.4894C9.28431 25.941 8.45938 26.2825 7.59897 26.5041V26.5417L7.5792 26.5041C7.16568 26.5977 6.74328 26.6464 6.31932 26.6494C5.49928 26.6689 4.68547 26.5025 3.9388 26.1629C3.19213 25.8233 2.53194 25.3193 2.00764 24.6884C0.862831 23.2849 0.282447 21.505 0.379887 19.6964V0.483718H7.59897V19.6974C7.49878 21.5061 8.07751 23.2871 9.22178 24.6914C9.47034 24.9792 9.74439 25.244 10.0406 25.4825L10.0446 25.4786Z" fill="#292929"></path></svg>