<svg xmlns="http://www.w3.org/2000/svg" width="87" height="37" viewBox="0 0 87 37" fill="none"><path d="M73.6897 23.6057C42.4055 21.2511 16.5506 28.6034 10.7362 31.343C7.51614 32.7844 7.2764 34.6108 7.75189 35.6204C8.18462 36.3894 9.72252 36.8699 11.4037 36.0044C23.8024 29.4211 48.9351 24.1827 73.6848 25.6728C73.8231 25.6771 73.961 25.6536 74.09 25.6036C74.2191 25.5536 74.3369 25.4782 74.4363 25.3818C74.5357 25.2855 74.6147 25.1702 74.6686 25.0427C74.7226 24.9152 74.7504 24.7782 74.7504 24.6398C74.7504 24.5013 74.7226 24.3643 74.6686 24.2368C74.6147 24.1094 74.5357 23.994 74.4363 23.8977C74.3369 23.8013 74.2191 23.7259 74.09 23.6759C73.961 23.6259 73.8231 23.6024 73.6848 23.6067L73.6897 23.6057ZM81.427 14.3793C80.1338 15.8207 78.207 16.9259 77.5823 16.3976C77.0053 15.8694 77.5823 14.1385 77.5823 14.1385C80.6581 12.1679 86.6167 7.1752 86.6167 3.32546C86.6167 -0.230814 83.3966 -1.33599 79.9846 1.97955C77.2296 4.91616 75.2337 8.48125 74.1702 12.3649C72.3926 14.0948 69.6053 16.3051 67.0577 16.3051C65.7645 16.3051 65.3755 15.3919 65.5655 14.1425C67.7281 14.0948 73.6868 12.4604 73.6868 7.51043C73.6644 6.69099 73.319 5.91362 72.7258 5.34782C72.421 5.07326 72.0636 4.86351 71.6753 4.73133C71.2869 4.59914 70.8757 4.54727 70.4667 4.57887C67.7759 4.57887 64.3151 7.31844 62.634 11.1622C62.1705 11.069 61.719 10.9239 61.288 10.7295C61.7324 9.78794 62.0865 8.80635 62.3455 7.79792C62.7295 5.77955 61.865 4.53012 60.1829 4.67436C59.1254 4.77384 57.8283 5.68305 57.5875 7.79792C57.4888 8.87236 57.6884 9.95321 58.1645 10.9215C57.4433 13.1806 54.4162 16.0157 53.4065 15.9192C52.3969 15.8227 53.5508 11.7859 54.5595 8.80661C55.1311 8.23498 55.5722 7.54643 55.8527 6.78824C55.9952 6.50574 56.0248 6.1796 55.9356 5.87604C55.8463 5.57249 55.6449 5.31427 55.3722 5.15384C54.6305 4.87699 53.8114 4.89171 53.0802 5.19503C52.3489 5.49835 51.7599 6.0677 51.4319 6.78824C51.0151 7.50871 50.6645 8.26551 50.3844 9.04933C49.5677 10.058 48.2218 11.3084 47.8379 11.2119C47.2609 10.828 49.131 8.37687 48.8953 7.03394C48.8094 6.48684 48.5178 5.99317 48.0802 5.65374C47.6426 5.31431 47.092 5.15472 46.5407 5.20756C44.8585 5.44829 42.6004 8.61959 42.6004 8.61959C42.8554 8.03978 43.0176 7.42344 43.0809 6.79321C42.9814 5.59153 40.7263 5.06332 39.6211 7.22593C38.8413 9.30682 38.2766 11.4621 37.936 13.6581C37.4555 14.6668 35.5814 17.5983 34.0912 17.6948C32.8896 17.7943 34.3797 12.5051 34.5717 12.2167C35.2442 11.208 36.0638 9.0931 35.8649 8.17991C35.8641 7.96119 35.8165 7.74518 35.7254 7.54634C35.6343 7.3475 35.5018 7.17042 35.3367 7.02698C35.1609 6.89365 34.9567 6.80258 34.74 6.76084C34.5234 6.71909 34.3 6.72778 34.0872 6.78624C33.7148 6.87738 33.3649 7.04381 33.0592 7.27528C32.7535 7.50676 32.4984 7.79837 32.3096 8.13216C32.0418 7.80487 31.6904 7.55615 31.2926 7.41236C30.8949 7.26858 30.4657 7.2351 30.0505 7.31546C25.1006 7.84368 21.9293 16.3499 22.2655 20.3389C22.554 22.5015 23.5587 23.7987 25.4855 23.5589C27.6482 23.2705 29.4258 20.1947 29.4258 20.1947C29.4258 20.1947 29.9063 22.7412 32.2111 22.4538C33.9496 21.9248 35.4796 20.8666 36.5881 19.4267C36.5322 19.5647 36.4986 19.7108 36.4886 19.8594C36.1046 22.022 39.7087 21.7813 40.0449 20.1479C41.1023 12.0267 43.8896 8.66237 44.7063 8.66237C45.3788 8.66237 42.9287 12.5071 44.3224 13.9485C45.3798 15.2417 47.3067 14.237 48.8873 12.8911C48.6067 13.9102 48.4455 14.9584 48.4069 16.0147C48.3074 18.2738 49.1281 20.0992 51.3912 20.0514C54.3754 19.9519 57.5428 16.3031 59.6089 12.8434C60.157 13.1813 60.7579 13.425 61.3865 13.5646C61.1854 14.3814 61.1043 15.2232 61.1458 16.0634C61.3378 18.7065 63.2119 19.7162 65.3745 19.6197C67.9211 19.5202 70.9014 17.6013 72.9198 15.8714C72.9089 15.9739 72.8748 16.0725 72.8203 16.1599C72.6283 17.4531 72.9198 19.8127 74.791 19.9082C76.9536 20.1002 80.6541 17.8898 82.5282 15.6307C84.1179 14.623 82.5809 13.1816 81.427 14.3832V14.3793ZM83.4454 3.37421C83.5526 3.38357 83.6521 3.43363 83.7235 3.51411C83.795 3.5946 83.8328 3.69938 83.8294 3.80693C83.8294 6.06604 78.015 10.9195 78.015 10.9195C78.015 10.9195 81.812 3.37819 83.4454 3.37819V3.37421ZM69.461 8.13216C69.5574 8.12729 69.6538 8.14177 69.7445 8.17474C69.8353 8.20772 69.9185 8.25852 69.9892 8.32415C70.058 8.39147 70.1076 8.47588 70.1329 8.56871C70.1583 8.66154 70.1585 8.75945 70.1335 8.85237C70.1335 10.1456 68.3558 11.1115 66.3852 11.1115C67.4426 9.6253 68.6443 8.13614 69.461 8.13614V8.13216ZM30.7757 11.6924C30.5837 13.0383 28.1804 19.189 26.8354 19.189C25.1533 19.2884 27.6521 10.5345 30.3917 10.5872C30.9199 10.5862 30.9199 10.9722 30.7757 11.6924ZM9.72749 13.3258C11.3131 13.3258 8.4343 21.4471 8.8143 25.0033C9.1943 28.5596 13.1913 27.5499 12.8988 25.4361C12.4183 21.9763 14.8694 10.9235 17.2758 10.9235C19.0534 10.9235 15.3051 18.5165 16.0741 23.2257C16.5546 26.3493 20.832 25.3883 20.3516 23.4177C19.0494 17.2183 23.4264 11.211 22.8464 6.83797C22.5579 5.01159 21.5532 4.0029 20.2998 4.0029C16.2631 4.0029 12.9953 12.0286 12.9953 12.0286C12.9953 12.0286 13.3793 7.46368 10.1105 7.2707C5.40227 7.03096 0.546829 18.7085 0.646305 29.2758C0.745781 32.6401 5.02326 32.1109 4.7308 29.3753C4.48907 24.6671 7.2764 13.3258 9.72749 13.3258Z" fill="#292929"></path></svg>