<svg xmlns="http://www.w3.org/2000/svg" width="89" height="33" viewBox="0 0 89 33" fill="none"><path opacity="0.999" fill-rule="evenodd" clip-rule="evenodd" d="M12.1632 1.81323C6.43926 8.5356 0.950642 16.8737 0.892794 23.1034C0.835704 24.2201 1.03309 25.3352 1.47006 26.3645C1.90702 27.3937 2.57214 28.3103 3.41518 29.0448C5.69924 31.0429 8.64426 32.1211 11.6785 32.0699C15.8187 32.0759 19.9299 30.4053 23.1485 29.1176C28.5692 26.9493 88.4921 0.928545 88.4921 0.928545C89.0706 0.639304 88.9619 0.27825 88.2388 0.457779C87.9466 0.530589 23.0038 18.1305 23.0038 18.1305C21.7735 18.4786 20.5023 18.6607 19.2237 18.672C14.2368 18.702 9.79146 15.9312 9.82737 10.0945C9.96772 7.19264 10.7665 4.36073 12.1632 1.81323Z" fill="#292929"></path></svg>