<svg xmlns="http://www.w3.org/2000/svg" width="1359" height="717" viewBox="0 0 1359 717" fill="none"><path d="M564.178 490.255C739.077 517.288 1043.89 432.052 1191.71 349.615C1381.1 244.008 1405.72 137.424 1283.2 81.0891C1160.7 24.7493 918.952 3.79308 675.034 1.00023C430.397 -1.80789 151.341 16.3445 -141.332 55.0282C-452.885 96.2098 -797.466 161.647 -1083.8 260.681C-1339.65 349.18 -1513.85 454.121 -1519.25 540.311C-1524.58 625.622 -1394.02 689.459 -1189.19 710.098C-1036.01 725.528 -737.911 717.246 -529.453 632.854C-434.75 594.521 -429.376 558.578 -479.544 539.377C-545.738 514.041 -674.832 508.513 -791.7 506.339C-1032.97 501.858 -1321.11 525.247 -1617.67 573.9C-1691.13 585.951 -1764.14 599.85 -1837.62 615.484C-1848.89 617.888 -1847.71 622.456 -1836.52 620.314C-1558.99 567.19 -1287.88 530.751 -1038.33 519.102C-915.204 513.361 -799.73 513.481 -695.933 519.808C-597.039 525.843 -455.334 535.477 -473.696 581.181C-490.342 622.684 -633.285 663.001 -748.882 683.424C-878.593 706.342 -1004.03 710.742 -1102.71 706.162C-1311.25 696.48 -1446.43 645.057 -1483.9 575.592C-1525.43 498.479 -1412.54 397.723 -1170.36 301.59C-922.91 203.354 -607.109 133.34 -311.952 87.1248C221.837 3.53784 730.22 -13.943 1075.36 39.444C1182.73 56.0595 1273.6 80.2524 1313.08 120.199C1354.09 161.736 1342.64 217.192 1278.09 276.736C1222.39 328.14 1123.13 386.284 979.516 431.1C843.404 473.579 676.032 498.467 574.94 485.481C569.513 484.777 558.941 489.439 564.178 490.255Z" fill="url(#paint0_linear_2639_435)"></path><defs><linearGradient id="paint0_linear_2639_435" x1="1034.33" y1="-10.6916" x2="639.276" y2="66.9213" gradientUnits="userSpaceOnUse"><stop stop-color="#BDDAFF"></stop><stop offset="0.505" stop-color="#E3D2FD"></stop><stop offset="1" stop-color="#F9F7F6"></stop></linearGradient></defs></svg>