<svg xmlns="http://www.w3.org/2000/svg" width="1360" height="718" viewBox="0 0 1360 718" fill="none"><g clip-path="url(#clip0_790_2)"><path d="M564.678 491.219C739.577 518.252 1044.39 433.016 1192.21 350.579C1381.6 244.972 1406.22 138.388 1283.7 82.0528C1161.2 25.713 919.452 4.75678 675.534 1.96393C430.897 -0.844193 151.841 17.3082 -140.832 55.9919C-452.385 97.1735 -796.966 162.611 -1083.3 261.645C-1339.15 350.144 -1513.35 455.085 -1518.75 541.275C-1524.08 626.586 -1393.52 690.423 -1188.69 711.062C-1035.51 726.492 -737.411 718.21 -528.953 633.818C-434.25 595.485 -428.875 559.542 -479.043 540.341C-545.237 515.005 -674.331 509.477 -791.199 507.303C-1032.47 502.822 -1320.61 526.211 -1617.17 574.864C-1690.63 586.915 -1763.64 600.814 -1837.12 616.448C-1848.39 618.852 -1847.21 623.42 -1836.02 621.278C-1558.49 568.154 -1287.38 531.715 -1037.83 520.066C-914.703 514.325 -799.229 514.445 -695.432 520.772C-596.538 526.807 -454.834 536.441 -473.196 582.145C-489.842 623.648 -632.784 663.965 -748.381 684.388C-878.092 707.306 -1003.53 711.706 -1102.21 707.126C-1310.75 697.444 -1445.93 646.021 -1483.4 576.556C-1524.93 499.443 -1412.04 398.687 -1169.86 302.554C-922.41 204.318 -606.609 134.304 -311.452 88.0885C222.337 4.50154 730.721 -12.9793 1075.86 40.4077C1183.23 57.0232 1274.1 81.2161 1313.58 121.163C1354.59 162.7 1343.14 218.156 1278.59 277.7C1222.89 329.104 1123.63 387.248 980.017 432.064C843.905 474.543 676.532 499.431 575.44 486.445C570.013 485.741 559.441 490.403 564.678 491.219Z" fill="url(#paint0_linear_790_2)"></path></g><defs><linearGradient id="paint0_linear_790_2" x1="370.5" y1="1.99996" x2="1455.73" y2="424.844" gradientUnits="userSpaceOnUse"><stop stop-color="#D7F2B6"></stop><stop offset="0.505" stop-color="#F8D399"></stop><stop offset="1" stop-color="#FFF4D7"></stop></linearGradient><clipPath id="clip0_790_2"><rect width="1359" height="717" fill="white" transform="translate(0.5 0.963867)"></rect></clipPath></defs></svg>