<svg xmlns="http://www.w3.org/2000/svg" width="1004" height="838" viewBox="0 0 1004 838" fill="none"><path d="M116.357 786.883C288.804 869.967 620.061 841.622 790.243 774.106C1008.28 687.619 1058.18 554.903 946.057 447.776C833.958 340.649 591.787 247.276 343.186 177.074C93.8549 106.656 -195.513 54.2673 -503.561 25.0234C-831.481 -6.10373 -1198.78 -14.5097 -1514.35 36.9283C-1796.34 82.8977 -1998.7 172.66 -2024.22 283.942C-2049.47 394.092 -1930.87 513.227 -1726.35 596.112C-1573.41 658.09 -1266.87 728.586 -1034.27 675.057C-928.603 650.746 -914.77 605.191 -961.577 566.384C-1023.34 515.179 -1153.97 472.726 -1272.89 437.996C-1518.4 366.308 -1818.26 318.291 -2132.59 301.03C-2210.45 296.753 -2288.28 295.017 -2367 295.423C-2379.07 295.492 -2378.93 301.79 -2367 302.041C-2071.08 308.261 -1785.58 334.559 -1527.87 387.405C-1400.72 413.487 -1282.75 445.15 -1178.15 481.746C-1078.5 516.622 -935.934 567.887 -965.304 622.669C-991.947 672.422 -1147.37 686.167 -1270.23 681.346C-1408.1 675.938 -1537.29 647.472 -1637.07 614.556C-1847.92 544.993 -1974.12 440.839 -1996.29 339.742C-2020.83 227.527 -1882.09 126.517 -1612.3 66.8288C-1336.65 5.82717 -997.694 0.393165 -685.36 20.4621C-120.504 56.7469 403.047 172.582 743.339 336.589C849.204 387.621 936.438 444.061 967.513 507.093C999.781 572.622 975.209 642.047 895.427 702.331C826.58 754.383 711.655 803.367 554.502 822.814C405.556 841.25 228.749 828.144 128.461 783.575C123.079 781.173 111.194 784.386 116.357 786.883Z" fill="url(#paint0_linear_2639_168)"></path><defs><linearGradient id="paint0_linear_2639_168" x1="725.5" y1="279" x2="175.85" y2="695.598" gradientUnits="userSpaceOnUse"><stop stop-color="#FFBDBD"></stop><stop offset="0.24" stop-color="#C7F2DD"></stop><stop offset="0.505" stop-color="#E3D2FD"></stop><stop offset="0.775" stop-color="#F9F7F6"></stop></linearGradient></defs></svg>