<svg xmlns="http://www.w3.org/2000/svg" width="718" height="508" viewBox="0 0 718 508" fill="none"><path d="M526.02 365.696C408.503 388.888 206.162 330.415 108.802 271.348C-15.9368 195.679 -30.4256 116.461 52.5948 72.2713C135.6 28.0781 297.73 8.28275 460.972 2.02203C624.695 -4.26238 811.055 4.52587 1006.14 28.4221C1213.81 53.8617 1443.13 96.8602 1632.85 165.959C1802.38 227.706 1916.96 303.138 1918.97 367.446C1920.95 431.1 1832.41 481.033 1694.99 499.959C1592.22 514.11 1392.93 513.022 1255.04 453.532C1192.4 426.51 1189.47 399.745 1223.39 384.539C1268.15 364.476 1354.62 358.136 1432.85 354.512C1594.36 347.036 1786.7 359.581 1984.2 390.86C2033.12 398.607 2081.7 407.743 2130.57 418.168C2138.07 419.771 2137.19 423.205 2129.75 421.795C1945.06 386.85 1764.36 364.262 1597.62 359.828C1515.35 357.645 1438.09 359.712 1368.53 366.215C1302.25 372.416 1207.27 382.04 1218.7 415.876C1229.06 446.602 1323.95 474.281 1400.9 487.563C1487.26 502.468 1571.1 503.609 1637.2 498.498C1776.9 487.695 1868.3 446.958 1894.66 394.414C1923.89 336.083 1850.24 262.731 1690 195.044C1526.28 125.877 1316.3 78.9661 1119.7 49.485C764.129 -3.83693 424.329 -8.19916 192.424 37.5975C120.277 51.85 59.0357 71.4818 31.8754 102.006C3.66273 133.744 10.2901 174.985 52.3679 218.371C88.6749 255.827 154 297.574 249.247 328.603C339.519 358.014 451.033 373.746 518.91 362.313C522.554 361.694 529.54 364.996 526.02 365.696Z" fill="url(#paint0_linear_2639_331)"></path><defs><linearGradient id="paint0_linear_2639_331" x1="410.368" y1="38.8585" x2="576.999" y2="166.473" gradientUnits="userSpaceOnUse"><stop stop-color="#BDDAFF"></stop><stop offset="0.505" stop-color="#E3D2FD"></stop><stop offset="1" stop-color="#F9F7F6"></stop></linearGradient></defs></svg>