<svg xmlns="http://www.w3.org/2000/svg" width="718" height="509" viewBox="0 0 718 509" fill="none"><g clip-path="url(#clip0_790_4)"><path d="M526.02 366.66C408.503 389.852 206.162 331.379 108.802 272.312C-15.9369 196.643 -30.4257 117.425 52.5947 73.2352C135.6 29.0419 297.73 9.24657 460.972 2.98585C624.695 -3.29857 811.055 5.48968 1006.14 29.386C1213.81 54.8255 1443.13 97.8241 1632.85 166.922C1802.38 228.67 1916.96 304.102 1918.97 368.41C1920.95 432.064 1832.41 481.997 1694.99 500.923C1592.22 515.074 1392.93 513.986 1255.04 454.496C1192.4 427.474 1189.47 400.709 1223.39 385.503C1268.15 365.44 1354.62 359.1 1432.85 355.476C1594.36 348 1786.7 360.545 1984.2 391.824C2033.12 399.571 2081.7 408.707 2130.57 419.132C2138.07 420.735 2137.19 424.169 2129.75 422.759C1945.06 387.814 1764.36 365.226 1597.62 360.792C1515.35 358.609 1438.09 360.675 1368.53 367.179C1302.25 373.38 1207.27 383.004 1218.7 416.84C1229.06 447.566 1323.95 475.245 1400.9 488.527C1487.26 503.431 1571.1 504.572 1637.2 499.462C1776.9 488.659 1868.3 447.922 1894.66 395.377C1923.89 337.047 1850.24 263.695 1690 196.008C1526.28 126.841 1316.3 79.93 1119.7 50.4489C764.129 -2.87312 424.329 -7.23534 192.424 38.5614C120.277 52.8138 59.0356 72.4456 31.8753 102.97C3.6626 134.707 10.29 175.948 52.3678 219.335C88.6749 256.791 154 298.538 249.247 329.567C339.52 358.978 451.033 374.71 518.91 363.277C522.554 362.658 529.54 365.96 526.02 366.66Z" fill="url(#paint0_linear_790_4)"></path></g><defs><linearGradient id="paint0_linear_790_4" x1="410.368" y1="39.8223" x2="576.999" y2="167.437" gradientUnits="userSpaceOnUse"><stop stop-color="#D7F2B6"></stop><stop offset="0.505" stop-color="#F8D399"></stop><stop offset="1" stop-color="#FFF4D7"></stop></linearGradient><clipPath id="clip0_790_4"><rect width="718" height="508" fill="white" transform="translate(0 0.963867)"></rect></clipPath></defs></svg>