<svg xmlns="http://www.w3.org/2000/svg" width="89" height="32" viewBox="0 0 89 32" fill="none"><path opacity="0.999" fill-rule="evenodd" clip-rule="evenodd" d="M11.6629 1.51332C5.9389 8.2357 0.450288 16.5738 0.392439 22.8035C0.335349 23.9202 0.53274 25.0353 0.969705 26.0646C1.40667 27.0938 2.07178 28.0104 2.91483 28.7449C5.19888 30.743 8.14391 31.8212 11.1782 31.77C15.3183 31.776 19.4295 30.1054 22.6481 28.8177C28.0689 26.6494 87.9918 0.628642 87.9918 0.628642C88.5703 0.3394 88.4616 -0.0216538 87.7385 0.157876C87.4462 0.230685 22.5035 17.8305 22.5035 17.8305C21.2732 18.1787 20.0019 18.3608 18.7234 18.3721C13.7365 18.402 9.29111 15.6313 9.32702 9.79462C9.46737 6.89273 10.2662 4.06082 11.6629 1.51332Z" fill="black" fill-opacity="0.8"></path></svg>