<svg xmlns="http://www.w3.org/2000/svg" width="49" height="36" viewBox="0 0 49 36" fill="none"><path d="M18.5882 17.8893C18.5882 19.1176 18.4596 19.7317 17.5686 19.7317C16.6381 19.7317 16.4917 19.1739 16.4917 18.0584V8.25333H9.27262V19.7683C9.1752 21.5622 9.75071 23.3278 10.8865 24.7198C11.4062 25.345 12.0604 25.8446 12.8004 26.1813C13.5404 26.518 14.3469 26.683 15.1596 26.664C16.4351 26.6349 17.6785 26.2588 18.7563 25.5762C18.0779 28.1474 16.554 29.4329 14.2676 29.4329C13.3965 29.38 12.5412 29.1758 11.74 28.8297C10.8797 28.5293 10.0516 28.1441 9.26767 27.6796V33.6645C10.0546 34.1554 10.8797 34.5823 11.735 34.9412C12.9849 35.4301 14.314 35.6849 15.6561 35.6928C17.0898 35.7061 18.5092 35.4069 19.8157 34.8162C21.1221 34.2255 22.2842 33.3573 23.2213 32.2721C25.0263 30.1824 25.9545 27.4764 25.8122 24.7188V8.25333H18.5932L18.5882 17.8893ZM34.9666 0.869097C26.3937 1.64144 26.9772 10.8077 26.9772 10.8077V26.838C31.6379 26.838 33.9678 24.6011 33.9678 21.4979V19.4093H37.4053V12.4364H33.9678V11.5029C33.9242 10.6007 34.197 9.71157 34.7392 8.98909C34.9894 8.69972 35.3016 8.47037 35.6525 8.31802C36.0035 8.16566 36.3842 8.09421 36.7665 8.10895C37.341 8.11587 38.3982 8.30673 38.6118 9.13446L38.6276 9.20071V16.4683C38.507 18.7203 39.0577 20.9575 40.2099 22.8962C41.0659 24.1669 42.2297 25.2002 43.5929 25.8995C44.9778 26.6322 46.5219 27.0123 48.0886 27.0061C48.2646 27.0061 48.583 27.0012 48.8797 26.9874V19.6031C47.4022 19.6031 46.7684 19.3302 46.2976 18.7655C45.7474 17.8395 45.5028 16.7638 45.5985 15.691H48.1143V8.25333H45.732C45.282 5.46459 43.6098 1.26367 37.3974 0.795918C37.3974 0.795918 36.6616 0.768228 36.0851 0.788006C35.6361 0.803829 34.9666 0.869097 34.9666 0.869097ZM10.5444 26.2585L10.5493 26.2694C9.78412 26.7209 8.95918 27.0625 8.09878 27.284V27.3216L8.079 27.284C7.66548 27.3776 7.24308 27.4264 6.81912 27.4294C5.99908 27.4488 5.18527 27.2825 4.4386 26.9429C3.69193 26.6033 3.03174 26.0992 2.50744 25.4684C1.36263 24.0649 0.782248 22.2849 0.879689 20.4763V1.26367H8.09878V20.4773C7.99859 22.286 8.57731 24.067 9.72159 25.4713C9.97014 25.7592 10.2442 26.024 10.5404 26.2625L10.5444 26.2585Z" fill="black" fill-opacity="0.8"></path></svg>