<svg xmlns="http://www.w3.org/2000/svg" width="87" height="37" viewBox="0 0 87 37" fill="none"><path d="M73.1905 23.6057C41.9062 21.2511 16.0513 28.6034 10.2369 31.343C7.01684 32.7844 6.7771 34.6108 7.2526 35.6205C7.68532 36.3894 9.22323 36.8699 10.9044 36.0045C23.3031 29.4211 48.4358 24.1827 73.1855 25.6729C73.3239 25.6771 73.4617 25.6536 73.5908 25.6036C73.7198 25.5536 73.8376 25.4782 73.937 25.3819C74.0364 25.2855 74.1154 25.1702 74.1693 25.0427C74.2233 24.9152 74.2511 24.7782 74.2511 24.6398C74.2511 24.5014 74.2233 24.3643 74.1693 24.2369C74.1154 24.1094 74.0364 23.9941 73.937 23.8977C73.8376 23.8014 73.7198 23.7259 73.5908 23.676C73.4617 23.626 73.3239 23.6024 73.1855 23.6067L73.1905 23.6057ZM80.9277 14.3793C79.6345 15.8207 77.7077 16.9259 77.083 16.3977C76.506 15.8695 77.083 14.1386 77.083 14.1386C80.1588 12.1679 86.1174 7.17523 86.1174 3.3255C86.1174 -0.230776 82.8974 -1.33595 79.4853 1.97959C76.7303 4.9162 74.7344 8.48128 73.6709 12.3649C71.8933 14.0948 69.106 16.3052 66.5584 16.3052C65.2652 16.3052 64.8762 15.392 65.0662 14.1426C67.2288 14.0948 73.1875 12.4604 73.1875 7.51047C73.1651 6.69103 72.8197 5.91365 72.2265 5.34786C71.9217 5.07329 71.5643 4.86355 71.176 4.73137C70.7876 4.59918 70.3764 4.54731 69.9674 4.5789C67.2766 4.5789 63.8158 7.31848 62.1347 11.1622C61.6712 11.0691 61.2197 10.9239 60.7888 10.7295C61.2331 9.78798 61.5872 8.80639 61.8462 7.79796C62.2302 5.77958 61.3657 4.53016 59.6836 4.6744C58.6261 4.77388 57.329 5.68309 57.0882 7.79796C56.9895 8.8724 57.1891 9.95325 57.6652 10.9215C56.944 13.1806 53.9169 16.0157 52.9072 15.9192C51.8976 15.8227 53.0515 11.786 54.0602 8.80665C54.6318 8.23501 55.0729 7.54647 55.3534 6.78827C55.4959 6.50578 55.5255 6.17964 55.4363 5.87608C55.347 5.57252 55.1456 5.31431 54.8729 5.15388C54.1312 4.87702 53.3121 4.89174 52.5809 5.19506C51.8496 5.49839 51.2606 6.06774 50.9326 6.78827C50.5158 7.50874 50.1652 8.26554 49.8852 9.04937C49.0685 10.0581 47.7225 11.3085 47.3386 11.212C46.7616 10.828 48.6318 8.37691 48.396 7.03398C48.3101 6.48688 48.0185 5.99321 47.5809 5.65378C47.1433 5.31435 46.5927 5.15476 46.0414 5.2076C44.3592 5.44833 42.1011 8.61963 42.1011 8.61963C42.3561 8.03982 42.5183 7.42348 42.5816 6.79325C42.4821 5.59157 40.227 5.06335 39.1218 7.22597C38.342 9.30686 37.7773 11.4621 37.4367 13.6581C36.9562 14.6668 35.0821 17.5984 33.5919 17.6949C32.3903 17.7943 33.8804 12.5052 34.0724 12.2167C34.7449 11.208 35.5645 9.09314 35.3656 8.17995C35.3648 7.96123 35.3172 7.74522 35.2261 7.54638C35.135 7.34754 35.0025 7.17046 34.8374 7.02702C34.6616 6.89369 34.4574 6.80262 34.2407 6.76088C34.0241 6.71913 33.8007 6.72782 33.588 6.78628C33.2155 6.87742 32.8656 7.04385 32.5599 7.27532C32.2542 7.50679 31.9991 7.79841 31.8103 8.1322C31.5425 7.8049 31.1911 7.55619 30.7934 7.4124C30.3956 7.26862 29.9664 7.23513 29.5512 7.3155C24.6013 7.84372 21.43 16.3499 21.7662 20.3389C22.0547 22.5015 23.0594 23.7987 24.9862 23.559C27.1489 23.2705 28.9265 20.1947 28.9265 20.1947C28.9265 20.1947 29.407 22.7413 31.7118 22.4538C33.4503 21.9248 34.9803 20.8666 36.0888 19.4267C36.0329 19.5648 35.9993 19.7108 35.9893 19.8595C35.6053 22.0221 39.2094 21.7813 39.5456 20.1479C40.603 12.0267 43.3903 8.66241 44.207 8.66241C44.8795 8.66241 42.4294 12.5072 43.8231 13.9486C44.8805 15.2418 46.8074 14.2371 48.388 12.8911C48.1075 13.9102 47.9462 14.9584 47.9076 16.0147C47.8081 18.2738 48.6288 20.0992 50.8919 20.0514C53.8761 19.952 57.0435 16.3032 59.1096 12.8434C59.6577 13.1813 60.2586 13.4251 60.8872 13.5646C60.6861 14.3814 60.605 15.2232 60.6465 16.0634C60.8385 18.7065 62.7126 19.7162 64.8752 19.6197C67.4218 19.5202 70.4021 17.6013 72.4205 15.8715C72.4096 15.9739 72.3755 16.0725 72.321 16.1599C72.129 17.4531 72.4205 19.8127 74.2917 19.9082C76.4543 20.1002 80.1548 17.8898 82.0289 15.6307C83.6186 14.623 82.0816 13.1816 80.9277 14.3833V14.3793ZM82.9461 3.37425C83.0533 3.3836 83.1528 3.43367 83.2243 3.51415C83.2957 3.59464 83.3335 3.69942 83.3301 3.80697C83.3301 6.06607 77.5157 10.9195 77.5157 10.9195C77.5157 10.9195 81.3127 3.37823 82.9461 3.37823V3.37425ZM68.9617 8.1322C69.0581 8.12733 69.1545 8.14181 69.2453 8.17478C69.336 8.20775 69.4192 8.25855 69.4899 8.32419C69.5587 8.39151 69.6083 8.47592 69.6336 8.56875C69.659 8.66158 69.6592 8.75948 69.6342 8.85241C69.6342 10.1456 67.8565 11.1115 65.8859 11.1115C66.9433 9.62534 68.145 8.13618 68.9617 8.13618V8.1322ZM30.2764 11.6925C30.0844 13.0384 27.6811 19.189 26.3361 19.189C24.654 19.2885 27.1528 10.5346 29.8924 10.5873C30.4206 10.5863 30.4206 10.9722 30.2764 11.6925ZM9.2282 13.3259C10.8139 13.3259 7.93501 21.4471 8.31501 25.0034C8.69501 28.5597 12.692 27.55 12.3995 25.4361C11.919 21.9763 14.3701 10.9235 16.7765 10.9235C18.5541 10.9235 14.8058 18.5165 15.5748 23.2257C16.0553 26.3493 20.3327 25.3884 19.8523 23.4177C18.5501 17.2184 22.9271 11.211 22.3471 6.83801C22.0587 5.01163 21.0539 4.00294 19.8005 4.00294C15.7638 4.00294 12.496 12.0287 12.496 12.0287C12.496 12.0287 12.88 7.46372 9.61118 7.27073C4.90297 7.031 0.0475346 18.7085 0.147011 29.2759C0.246487 32.6402 4.52397 32.111 4.23151 29.3754C3.98978 24.6671 6.7771 13.3259 9.2282 13.3259Z" fill="black" fill-opacity="0.8"></path></svg>